<?xml version="1.0" encoding="UTF-8"?>
<svg id="Hamburger" xmlns="http://www.w3.org/2000/svg" viewBox="0 0 400 400">
  <defs>
    <style>
      .cls-1 {
        fill: #e91d2f;
      }

      .cls-2 {
        fill: none;
        stroke: #738939;
        stroke-linecap: round;
        stroke-miterlimit: 10;
        stroke-width: 6px;
      }

      .cls-3 {
        fill: #fff;
        opacity: .5;
      }

      .cls-4 {
        fill: #e8f0c0;
      }

      .cls-5 {
        fill: #fcbd82;
      }

      .cls-6 {
        fill: #8c3526;
      }
    </style>
  </defs>
  <circle class="cls-4" cx="200" cy="200" r="121.79"/>
  <path id="upper" class="cls-5" d="M200,132.07c-33.72,0-61.54,13.7-65.59,31.41-.52,2.27,1.03,4.47,3.19,4.47h124.81c2.15,0,3.71-2.2,3.19-4.47-4.06-17.71-31.88-31.41-65.59-31.41Z"/>
  <rect id="steak" class="cls-6" x="132.8" y="167.96" width="134.46" height="18.88" rx="3.83" ry="3.83"/>
  <rect id="tomato" class="cls-1" x="132.8" y="213.16" width="134.46" height="18.88" rx="3.83" ry="3.83"/>
  <path id="bottom" class="cls-5" d="M200,267.93c33.72,0,61.54-13.7,65.59-31.41.52-2.27-1.03-4.47-3.19-4.47h-124.81c-2.15,0-3.71,2.2-3.19,4.47,4.06,17.71,31.88,31.41,65.59,31.41Z"/>
  <path id="shadow" class="cls-3" d="M238.57,138.82c-10.86-4.24-24.17-6.75-38.57-6.75s-27.71,2.51-38.57,6.75c.97,6.23,17.87,11.19,38.57,11.19s37.6-4.96,38.57-11.19Z"/>
  <g id="lettuce_-_line" data-name="lettuce - line">
    <path class="cls-2" d="M124.75,193c6.43,0,6.43,14,12.85,14s6.43-14,12.85-14,6.43,14,12.85,14,6.43-14,12.85-14,6.43,14,12.85,14,6.43-14,12.85-14,6.42,14,12.85,14,6.43-14,12.85-14,6.43,14,12.86,14,6.43-14,12.85-14,6.43,14,12.86,14,6.43-14,12.86-14"/>
  </g>
</svg>