<?xml version="1.0" encoding="UTF-8"?>
<svg xmlns="http://www.w3.org/2000/svg" xmlns:xlink="http://www.w3.org/1999/xlink" viewBox="0 0 600 600">
  <defs>
    <style>
      .cls-1, .cls-2 {
        fill: none;
      }

      .cls-2, .cls-3, .cls-4, .cls-5, .cls-6 {
        stroke: #231f20;
        stroke-miterlimit: 10;
      }

      .cls-7 {
        fill: #7b332a;
      }

      .cls-8 {
        fill: #4b3c52;
      }

      .cls-9 {
        fill: #c49993;
      }

      .cls-10, .cls-5 {
        fill: #231f20;
      }

      .cls-3 {
        fill: url(#_6_dpi_30_);
        mix-blend-mode: lighten;
        opacity: .5;
      }

      .cls-11 {
        isolation: isolate;
      }

      .cls-4 {
        fill: #79d1f0;
      }

      .cls-12 {
        fill: #a49232;
      }

      .cls-13 {
        opacity: .2;
      }

      .cls-14 {
        fill: #9c3049;
      }

      .cls-15 {
        fill: url(#New_Pattern_Swatch_2);
      }
    </style>
    <pattern id="_6_dpi_30_" data-name="6 dpi 30%" x="0" y="0" width="48" height="48" patternTransform="translate(-1777.54 -96)" patternUnits="userSpaceOnUse" viewBox="0 0 48 48">
      <g>
        <rect class="cls-1" y="0" width="48" height="48"/>
        <g>
          <circle class="cls-10" cx="24" cy="48" r="3.6"/>
          <circle class="cls-10" cx="48" cy="48" r="3.6"/>
          <circle class="cls-10" cx="24" cy="24" r="3.6"/>
          <circle class="cls-10" cx="48" cy="24" r="3.6"/>
          <circle class="cls-10" cx="36" cy="36" r="3.6"/>
          <circle class="cls-10" cx="12" cy="36" r="3.6"/>
          <circle class="cls-10" cx="36" cy="12" r="3.6"/>
          <circle class="cls-10" cx="12" cy="12" r="3.6"/>
        </g>
        <g>
          <circle class="cls-10" cy="48" r="3.6"/>
          <circle class="cls-10" cy="24" r="3.6"/>
        </g>
        <g>
          <circle class="cls-10" cx="24" cy="0" r="3.6"/>
          <circle class="cls-10" cx="48" cy="0" r="3.6"/>
        </g>
        <circle class="cls-10" cy="0" r="3.6"/>
      </g>
    </pattern>
    <pattern id="New_Pattern_Swatch_2" data-name="New Pattern Swatch 2" x="0" y="0" width="20" height="20" patternTransform="translate(-1777.54 -96)" patternUnits="userSpaceOnUse" viewBox="0 0 20 20">
      <g>
        <rect class="cls-1" y="0" width="20" height="20"/>
        <g>
          <circle class="cls-7" cx="22.85" cy="22.85" r="1.54"/>
          <path class="cls-7" d="M12.61,24.39c.85,0,1.54-.69,1.54-1.54s-.69-1.54-1.54-1.54-1.54.69-1.54,1.54.69,1.54,1.54,1.54Z"/>
          <path class="cls-7" d="M22.85,14.14c.85,0,1.54-.69,1.54-1.54s-.69-1.54-1.54-1.54-1.54.69-1.54,1.54.69,1.54,1.54,1.54Z"/>
          <path class="cls-7" d="M12.61,14.14c.85,0,1.54-.69,1.54-1.54s-.69-1.54-1.54-1.54-1.54.69-1.54,1.54.69,1.54,1.54,1.54Z"/>
          <path class="cls-7" d="M7.48,19.26c.85,0,1.54-.69,1.54-1.54s-.69-1.54-1.54-1.54-1.54.69-1.54,1.54.69,1.54,1.54,1.54Z"/>
          <path class="cls-7" d="M17.73,19.26c.85,0,1.54-.69,1.54-1.54s-.69-1.54-1.54-1.54-1.54.69-1.54,1.54.69,1.54,1.54,1.54Z"/>
          <path class="cls-7" d="M7.48,9.02c.85,0,1.54-.69,1.54-1.54s-.69-1.54-1.54-1.54-1.54.69-1.54,1.54.69,1.54,1.54,1.54Z"/>
          <path class="cls-7" d="M17.73,9.02c.85,0,1.54-.69,1.54-1.54s-.69-1.54-1.54-1.54-1.54.69-1.54,1.54.69,1.54,1.54,1.54Z"/>
        </g>
        <path class="cls-7" d="M2.85,14.14c.85,0,1.54-.69,1.54-1.54s-.69-1.54-1.54-1.54-1.54.69-1.54,1.54.69,1.54,1.54,1.54Z"/>
        <path class="cls-7" d="M12.61,4.39c.85,0,1.54-.69,1.54-1.54s-.69-1.54-1.54-1.54-1.54.69-1.54,1.54.69,1.54,1.54,1.54Z"/>
        <circle class="cls-7" cx="2.85" cy="2.85" r="1.54"/>
      </g>
    </pattern>
  </defs>
  <g class="cls-11">
    <g id="workspace_3" data-name="workspace 3">
      <rect class="cls-4" x="0" y="0" width="600" height="600"/>
      <rect class="cls-3" x="0" y="0" width="600" height="600"/>
      <path class="cls-2" d="M300,46.65s35.86,14.43,53.18,31.75,45.22,55.8,52.92,58.69,6.19,34.34,13.47,42.33l5.05,5.51c3.64,3.98,8.11,7.11,13.08,9.2l66.61,27.9s12.58,11.8,12.58,20.46-8.22,16.14-10.73,24.48c-2.8,9.35-2.51,13.46-1.92,20.21,0,0,10.12,14.77,15.39,17.32,8.73,4.21,2.34,22.76.47,27.67-.26.68.02,1.43.66,1.77,3.44,1.84,13.63,7.97,15.22,16.74,1.92,10.58-17.32,11.55-9.62,28.86s19.24,16.36,18.28,40.41-24.05,29.83-24.05,29.83c0,0-95.25,18.28-104.87,31.75s-16.36,14.43-16.36,14.43H78.97V30.3l206.86-6.74,14.17,23.09Z"/>
      <g>
        <path class="cls-9" d="M300,46.65s35.86,14.43,53.18,31.75,45.22,55.8,52.92,58.69,6.19,34.34,13.47,42.33l5.05,5.51c3.64,3.98,8.11,7.11,13.08,9.2l66.61,27.9s12.58,11.8,12.58,20.46-8.22,16.14-10.73,24.48c-2.8,9.35-2.51,13.46-1.92,20.21,0,0,10.12,14.77,15.39,17.32,8.73,4.21,2.34,22.76.47,27.67-.26.68.02,1.43.66,1.77,3.44,1.84,13.63,7.97,15.22,16.74,1.92,10.58-17.32,11.55-9.62,28.86s19.24,16.36,18.28,40.41-24.05,29.83-24.05,29.83c0,0-84.72,21.21-104.87,31.75-14.67,7.67-63.93,118.46-63.93,118.46H76.54l2.43-569.7,206.86-6.74,14.17,23.09Z"/>
        <path class="cls-10" d="M300.32,46.27c11.23,3.64,22,8.61,32.34,14.32,6.4,3.62,12.89,7.82,18.58,12.62,3.37,2.99,6.64,6.27,9.59,9.55,11.95,13.15,22.78,27.03,34.4,40.34,3.67,3.94,7.19,8.56,11.73,11.41,5.97,2.48,6.96,12.33,8.11,17.84,1,5.86,1.74,11.69,3.07,17.19.91,3.45,1.71,6.46,3.96,8.76,0,0,1.49,1.63,1.49,1.63,2.76,3.06,5.71,6.4,9.16,8.64,4.23,3.33,34.47,15.1,39.84,17.76,10.93,4.69,21.86,9.39,32.76,14.16,4.51,4.51,8.57,9.23,11.37,15.04.67,1.49,1.27,3.02,1.56,4.65,1.6,10.6-7.97,18.07-10.84,27.41-1.07,3.49-1.96,7.09-2.22,10.69-.22,2.88,0,5.82.24,8.81,0,0-.21-.59-.21-.59,4.09,5.32,8.31,10.91,13.43,15.18.97.74,1.8,1.14,2.8,1.69,8.5,5.77,3.74,21.48,1.11,29.41,0,0-.08.21-.08.21l-.04.1c.21-.5-.01-1.14-.49-1.4,6.56,3.52,13.22,8.41,16.12,15.75,5.96,15.78-17.02,15.36-8.24,31.57,1.61,3.4,3.71,6.55,6.13,9.43,3.43,4.07,7.44,8.26,9.63,13.41,2.72,6.45,3.07,13.6,2.59,20.5-.98,13.19-9.96,24.36-21.95,29.45-3.93,1.85-9.73,2.87-13.87,4.02,0,0-13.41,3.33-13.41,3.33-15.49,3.8-38.47,9.19-53.61,13.52-9.9,2.91-19.86,5.77-29.08,10.2-2.65,1.64-4.67,4.57-6.58,7.12-2.65,3.69-4.99,7.65-7.29,11.61-17.85,31.68-30.86,67.64-50.16,98.61-.57.91-275.27-.03-276.21.3-.08-.69,2.48-569.96,2.43-570.69.28-.45,207.16-6.43,207.63-6.76,0,0,.15.25.15.25,0,0,14.06,22.97,14.06,22.97h0ZM299.68,47.04s-14.27-23.21-14.27-23.21c2.83.09-209.25,7.77-205.94,6.48.07-.13-1.89,571.83-2.92,569.2-.08-.03,276.95-.33,274.79.29,0,0,.02-.04.02-.04,10.95-35.57,29.35-67.99,48.29-99.8,2.43-3.96,4.98-7.85,7.73-11.65,2.23-2.89,4.29-5.91,7.54-7.93,9.46-4.65,19.4-7.93,29.3-11.39,21.9-7.53,43.92-14.59,66.28-20.53,2.05-.53,7.95-2.05,9.84-2.57,4.85-1.59,9.52-4.38,13.04-7.99,5.11-5.1,7.64-12.26,7.58-19.42.17-5.18-.36-10.74-2.59-15.15-2.68-5.39-8.75-10.75-12.03-16.5-4.11-6.79-7.61-15.62-2.49-22.94,2.51-3.85,6.94-6.47,8.86-9.95.48-1.07.54-2.02.25-3.18-.48-2.35-1.69-4.41-3.3-6.39-2.62-3.18-6.18-5.88-9.94-8.03-.6-.32-1.14-.74-1.53-1.31-.84-1.16-.94-2.74-.35-4.03,2.06-5.34,3.89-11.06,4.11-16.77.03-2.96-.27-5.91-2.57-7.65,0,0-1.42-.87-1.42-.87-.54-.29-1.1-.84-1.58-1.19-5.39-4.94-9.32-10.93-13.34-16.91-1.03-7.71-.26-15.73,2.5-23.05,3.1-8.63,12.86-17.03,8.59-26.62-1.3-2.91-3.1-5.58-5.16-8.12-1.82-2.25-3.84-4.45-5.91-6.41,0,0,.59.38.54.35-18.94-7.71-46.26-18.73-65.41-26.67-2.77-1.08-5.76-2.53-8.29-4.24-3.81-2.45-7.17-5.98-10.17-9.35,0,0-1.5-1.62-1.5-1.62-1.79-1.77-3.1-4.3-3.88-6.52-2.5-7.15-3.29-14.87-4.6-22.04-.78-4.1-1.4-8.3-3.17-11.93-.25-.47-.51-.91-.84-1.25-.14-.19-.26-.24-.37-.34-.06-.07-.1-.04-.14-.07-3.16-1.43-5.61-4.02-7.99-6.4-6.19-6.44-11.83-13.33-17.5-20.17-10.36-12.33-20.05-25.17-31.76-36.14-14.42-12.29-31.52-21.25-48.3-29.94h0Z"/>
      </g>
      <g class="cls-13">
        <path class="cls-15" d="M300,46.65s35.86,14.43,53.18,31.75,45.22,55.8,52.92,58.69,6.19,34.34,13.47,42.33l5.05,5.51c3.64,3.98,8.11,7.11,13.08,9.2l66.61,27.9s12.58,11.8,12.58,20.46-8.22,16.14-10.73,24.48c-2.8,9.35-2.51,13.46-1.92,20.21,0,0,10.12,14.77,15.39,17.32,8.73,4.21,2.34,22.76.47,27.67-.26.68.02,1.43.66,1.77,3.44,1.84,13.63,7.97,15.22,16.74,1.92,10.58-17.32,11.55-9.62,28.86s19.24,16.36,18.28,40.41-24.05,29.83-24.05,29.83c0,0-84.72,21.21-104.87,31.75-14.67,7.67-63.93,118.46-63.93,118.46H76.54l2.43-569.7,206.86-6.74,14.17,23.09Z"/>
        <path class="cls-10" d="M300.32,46.27c11.23,3.64,22,8.61,32.34,14.32,6.4,3.62,12.89,7.82,18.58,12.62,3.37,2.99,6.64,6.27,9.59,9.55,11.95,13.15,22.78,27.03,34.4,40.34,3.67,3.94,7.19,8.56,11.73,11.41,5.97,2.48,6.96,12.33,8.11,17.84,1,5.86,1.74,11.69,3.07,17.19.91,3.45,1.71,6.46,3.96,8.76,0,0,1.49,1.63,1.49,1.63,2.76,3.06,5.71,6.4,9.16,8.64,4.23,3.33,34.47,15.1,39.84,17.76,10.93,4.69,21.86,9.39,32.76,14.16,4.51,4.51,8.57,9.23,11.37,15.04.67,1.49,1.27,3.02,1.56,4.65,1.6,10.6-7.97,18.07-10.84,27.41-1.07,3.49-1.96,7.09-2.22,10.69-.22,2.88,0,5.82.24,8.81,0,0-.21-.59-.21-.59,4.09,5.32,8.31,10.91,13.43,15.18.97.74,1.8,1.14,2.8,1.69,8.5,5.77,3.74,21.48,1.11,29.41,0,0-.08.21-.08.21l-.04.1c.21-.5-.01-1.14-.49-1.4,6.56,3.52,13.22,8.41,16.12,15.75,5.96,15.78-17.02,15.36-8.24,31.57,1.61,3.4,3.71,6.55,6.13,9.43,3.43,4.07,7.44,8.26,9.63,13.41,2.72,6.45,3.07,13.6,2.59,20.5-.98,13.19-9.96,24.36-21.95,29.45-3.93,1.85-9.73,2.87-13.87,4.02,0,0-13.41,3.33-13.41,3.33-15.49,3.8-38.47,9.19-53.61,13.52-9.9,2.91-19.86,5.77-29.08,10.2-2.65,1.64-4.67,4.57-6.58,7.12-2.65,3.69-4.99,7.65-7.29,11.61-17.85,31.68-30.86,67.64-50.16,98.61-.57.91-275.27-.03-276.21.3-.08-.69,2.48-569.96,2.43-570.69.28-.45,207.16-6.43,207.63-6.76,0,0,.15.25.15.25,0,0,14.06,22.97,14.06,22.97h0ZM299.68,47.04s-14.27-23.21-14.27-23.21c2.83.09-209.25,7.77-205.94,6.48.07-.13-1.89,571.83-2.92,569.2-.08-.03,276.95-.33,274.79.29,0,0,.02-.04.02-.04,10.95-35.57,29.35-67.99,48.29-99.8,2.43-3.96,4.98-7.85,7.73-11.65,2.23-2.89,4.29-5.91,7.54-7.93,9.46-4.65,19.4-7.93,29.3-11.39,21.9-7.53,43.92-14.59,66.28-20.53,2.05-.53,7.95-2.05,9.84-2.57,4.85-1.59,9.52-4.38,13.04-7.99,5.11-5.1,7.64-12.26,7.58-19.42.17-5.18-.36-10.74-2.59-15.15-2.68-5.39-8.75-10.75-12.03-16.5-4.11-6.79-7.61-15.62-2.49-22.94,2.51-3.85,6.94-6.47,8.86-9.95.48-1.07.54-2.02.25-3.18-.48-2.35-1.69-4.41-3.3-6.39-2.62-3.18-6.18-5.88-9.94-8.03-.6-.32-1.14-.74-1.53-1.31-.84-1.16-.94-2.74-.35-4.03,2.06-5.34,3.89-11.06,4.11-16.77.03-2.96-.27-5.91-2.57-7.65,0,0-1.42-.87-1.42-.87-.54-.29-1.1-.84-1.58-1.19-5.39-4.94-9.32-10.93-13.34-16.91-1.03-7.71-.26-15.73,2.5-23.05,3.1-8.63,12.86-17.03,8.59-26.62-1.3-2.91-3.1-5.58-5.16-8.12-1.82-2.25-3.84-4.45-5.91-6.41,0,0,.59.38.54.35-18.94-7.71-46.26-18.73-65.41-26.67-2.77-1.08-5.76-2.53-8.29-4.24-3.81-2.45-7.17-5.98-10.17-9.35,0,0-1.5-1.62-1.5-1.62-1.79-1.77-3.1-4.3-3.88-6.52-2.5-7.15-3.29-14.87-4.6-22.04-.78-4.1-1.4-8.3-3.17-11.93-.25-.47-.51-.91-.84-1.25-.14-.19-.26-.24-.37-.34-.06-.07-.1-.04-.14-.07-3.16-1.43-5.61-4.02-7.99-6.4-6.19-6.44-11.83-13.33-17.5-20.17-10.36-12.33-20.05-25.17-31.76-36.14-14.42-12.29-31.52-21.25-48.3-29.94h0Z"/>
      </g>
      <path class="cls-5" d="M398.44,162.58l-5.42-20.84c-.15-.59-.59-1.07-1.16-1.27-4.49-1.59-24.29-8.38-33.39-7.51-9.79.93-20.91,8.52-21.97,9.25-.06.04-.1.08-.14.14-1.02,1.5-15.99,23.7-18.88,33.56-.09.31.18.61.5.55l13.69-2.28c.21-.03.39-.14.52-.3,1.74-2.19,14.59-18.04,22.35-19.15,8.33-1.19,27.16,5.23,30.87,7.63l10.97,2.35c1.26.27,2.37-.88,2.04-2.13Z"/>
      <path class="cls-6" d="M356.42,222.8l31.26-9.15c.53-.16,1.09-.18,1.63-.09,2.18.35,13.85,1.68,18.92-6.85.11-.18.38-.1.35.11-.4,3.14-7.42,12.69-14.6,19.95-.23.23-.5.39-.8.49-3.32,1.06-25.18,7.38-35.87,6.24-.51-.05-.89-.5-.89-1.01v-9.68Z"/>
      <g>
        <path class="cls-12" d="M342.7,233.38s8.9-49.24,21.55-49.76c16.07-.66,21.94,16.85,24.29,29.78l-45.84,19.98Z"/>
        <path class="cls-10" d="M342.39,233.77c-.21-.18-.2-.47-.15-.67,0,0,.03-.19.03-.19,0,0,.06-.38.06-.38,1.28-7.85,3-15.67,5.19-23.32,2.42-7.97,4.83-16.03,10.05-22.79,1.47-1.74,3.24-3.38,5.62-3.9,1.11-.22,2.27-.16,3.4-.08,5.49.27,10.65,3.36,13.9,7.6,5.22,6.71,7.33,15.07,8.56,23.27,0,0,.11.3.11.3l-.4.25c-14.27,8.52-30.89,14.05-46.36,19.92h0ZM343.01,232.98c14.75-7.15,29.57-15.55,45.33-20.05,0,0-.3.58-.29.54-2.73-12.01-8.32-28.8-23.08-28.63-10.64-.48-19.24,38.11-21.45,47.13,0,0-.17.75-.17.75,0,0-.08.37-.08.37l-.04.19-.02.09v.05s0,0-.01-.15c-.02-.12-.11-.24-.19-.28h0Z"/>
      </g>
      <path class="cls-6" d="M478.25,270.71s3.4-13.61,8.85-14.29,14.83-4.1,14.29,0c-1.07,8.08-24.54,17.49-23.14,14.29Z"/>
      <g>
        <path class="cls-14" d="M484,352.09c1.81-.46,3.48-1.37,4.84-2.65,5.48-5.13,19.67-6.86,23.64-7.27,3.06-.31,7.12-.52,8.78-.18,2.27-6.37,6.4-33.61-1.62-37.49-.24-.12-.5-.27-.77-.44h0s-32.69,45.14-37.7,48.65c-.04.03,0,.09.04.08l2.79-.71Z"/>
        <path class="cls-10" d="M483.79,351.25c1.9-.43,3.55-1.51,4.99-2.8.55-.49,1.49-1.08,2.14-1.48,3.33-1.83,7.02-2.9,10.64-3.71,6.53-1.28,13.12-2.4,19.79-1.76.03,0-.57.32-.56.32.4-1.57.71-3.2.95-4.83.95-7.11,4.34-29.03-3.13-32.5,0,0,.31.08.3.08-.04,0,.36-.2.36-.2-5.36,7.72-12.87,19.16-18.65,26.41-4.96,6.4-9.89,12.82-15.22,18.94-1.15,1.31-2.34,2.61-3.71,3.73.03-.02.13-.1.19-.19.47-.61-.14-1.5-.85-1.33-.09.02-.01,0-.03,0,.01,0,.08-.02.09-.02.45-.11,2.21-.53,2.7-.65h0ZM484.21,352.92c-.45.11-2.31.62-2.77.74-.79.25-1.55-.76-1.01-1.45.14-.17.74-.68.9-.85,8.03-8.77,14.97-19.03,22.17-28.52,3.24-4.04,11.68-14.84,14.96-19.05,0,0,.15-.19.15-.19h.22s0-.01,0-.01h.16c10.42,3.66,6,31.01,2.57,39-3.24-.55-6.78-.02-10.07.3-6.38.86-12.97,2.03-18.75,4.88-.95.49-2.13,1.21-2.93,1.92-1.59,1.49-3.46,2.71-5.6,3.24h0Z"/>
      </g>
      <g>
        <path class="cls-14" d="M536.11,352.61c.04-.61,0-1.24-.12-1.92-1.33-7.32-8.62-12.78-13.01-15.47-2.88-.66-6.13-1.22-8.85-1.18-6.37.09-30.82,17.26-32.8,18.66-.05.04-.03.12.03.13l7.74,2.14c3.72,1.07,7.66,1.05,11.39.02,10.78-2.98,28.06-2.69,35.62-2.39Z"/>
        <path class="cls-10" d="M535.77,352.24c-.07.03-.14.1-.16.17-.02.12-.02,0-.02,0l-.03-.17c-1.62-7.11-7.49-12.05-12.84-16.6-1.35.2-4.35-.2-6.16-.22-.55-.02-1.74-.05-2.27-.04-1.16.03-2.19.43-3.37.88-10.07,4.44-19.36,11-28.5,17.16,0,0-.33.23-.33.23,0,0-.04.03-.04.03.66-.4.59-1.58-.12-1.92-.07-.06-.36-.13-.19-.08.52.13,3.36.96,3.95,1.12,0,0,3.08.88,3.08.88,3.95,1.28,8.05,1.29,12.05.17.79-.21,2.39-.55,3.19-.69,9.54-1.67,19.29-1.6,28.92-1.24.73.04,2.12.05,2.85.3h0ZM536.45,352.98c-1.01.16-2.5.09-3.55.09-7.41-.02-14.92.18-22.27,1.08-2.61.3-5.23.74-7.78,1.31-1.53.37-3.14.88-4.74,1.13-4.36.85-8.89-.28-13.06-1.49-.65-.2-3.74-.95-4.29-1.2-.77-.38-.92-1.6-.16-2.15.02-.02.07-.05.1-.07,0,0,.33-.23.33-.23l1.32-.92c5.28-3.68,10.62-7.24,16.12-10.59,3.69-2.21,7.38-4.41,11.48-6.12,2.04-.94,4.58-1.36,6.86-.92,8.93,1.31,20.33,9.04,19.96,19-.07.34-.07.83-.3,1.1h0Z"/>
      </g>
      <path class="cls-10" d="M172.26,334.53c-10.18-2.25-20.11-5.47-29.64-9.66-3.12-1.28-6.13-3.25-9.35-4.11-10.24-2.12-19.5,5.36-26.49,12.02-2.31,2.12-5.17,5.61-6.71,7.47-2.14,4.7-3.53,9.87-4.21,15.04-1.88,13.48,2.63,26.04,13.29,34.63,19.52,17.56,39.7,36.08,65.02,44.45,2.14.86,5.32,1.45,7.54,2.14,2.52.47,5.16,1.06,7.7,1.37,5.04.55,10.43,1,15.46.21,16.66-1.88,30.59-14.78,36.11-30.28.2-1.02.21-2.01-.09-3.09-1.95-7.4-5.7-14.49-11.41-19.69-1.92-1.73-4.05-3.23-6.33-4.56l.41-.91c7.85,2.78,14.12,9.09,17.82,16.47,1.78,3.9,4.08,8.11,3.3,12.56-1.14,4.14-3.27,7.78-5.48,11.42-12.09,18.84-30.76,25.1-52.3,21.2-31.85-5.42-56.6-28.22-79.46-49.37-16.17-13.29-17.41-34.26-9.09-52.43,4.38-5.57,9.46-10.52,15.25-14.61,5.73-3.96,12.89-7.22,20.02-5.45,3.47.96,6.31,2.93,9.56,4.3,3.13,1.42,6.31,2.74,9.53,3.94,6.45,2.38,13.06,4.43,19.76,5.96l-.2.98h0Z"/>
      <path class="cls-6" d="M215.16,387.22c-2.73-2.33-7.21-5.54-12.28-6.74-2.73-.65-4.99-2.51-6.07-5.1-1.98-4.76-6.43-11.1-15.58-8.2,0,0-8.13,11.08-4.43,19.21,2.85,6.28,21.26,9.03,29.51,9.96,2.5.28,5-.52,6.88-2.2l2.03-1.81c1.53-1.37,1.5-3.77-.06-5.11Z"/>
      <g>
        <path class="cls-8" d="M311.84,51.93s13.09-.6,15.54-8.51c.45-1.46.16-3.05-.72-4.3-4.39-6.24-20.8-28.69-32.06-32.44C282.05,2.5,246.47.2,243.5.01c-.14,0-.26-.01-.4-.01h-55.09c-40.81,0-81.34,7.73-118.99,23.48-.69.29-1.38.58-2.06.87C26.37,41.69,0,81.55,0,125.7v474.3h243.31s-41.32-118.42-67.47-125.4-69.24-85.25-69.24-85.25c0,0-40.9-100.3,76.95-44.43,0,0,25.5-13.48,40.34-30.07s19.87-14.06,25.01-35.37c.2-.84.16-1.73-.12-2.55-4.95-14.76-51.22-155.66-22.27-182.95,24.64-23.24,57.35-39.78,69.08-45.31,2.77-1.3,5.96-1.33,8.76-.09l7.5,3.35Z"/>
        <path class="cls-10" d="M311.93,51.44c5.56-.75,13.22-2.65,14.68-8.83.23-1.56-.64-2.91-1.62-4.1,0,0-2.11-2.81-2.11-2.81-2.84-3.73-5.81-7.35-8.87-10.88-4.78-5.43-9.75-10.73-15.79-14.73-1.65-.96-3.34-1.86-5.25-2.34-16.02-3.95-33.05-4.77-49.52-6-3.97-.04-16.01.1-20.19.09,0,0-28.24.14-28.24.14-37.47-.4-74.89,5.26-110.18,17.86-27.88,9.41-49.59,22.9-65.74,48.07-9.95,15.51-15.75,33.71-16.74,52.1C1.06,245.38,2.34,476.46,0,599.5c-.22.14,245.69-.87,242.83.65-7.59-19.9-15.68-39.64-24.52-59.01-6.7-14.45-13.68-28.8-22.1-42.3-4.19-6.58-8.62-13.17-14.41-18.35-1.89-1.62-3.94-3.1-6.05-3.74,0,0-1.94-.65-1.94-.65-1.13-.29-2.89-1.23-3.97-1.73-7.8-4.41-14.17-10.91-20.05-17.49-17.62-20.41-32.01-43.28-45.32-66.66-16.58-45.05-5.06-76.38,47.53-60.02,11.16,3.38,21.86,7.98,32.35,13,0,0-1.71.04-1.71.04,15.36-8.96,30.29-19.42,42.02-32.92,4.05-4.36,9.03-8.48,13.02-12.57,3.28-3.31,5.41-7.62,6.9-12.06.7-2.1,1.35-4.59,1.9-6.7.07-.31.12-.59.06-.91-12.71-40.02-41.92-139.86-25.33-177.3,1.65-3.75,4.53-6.86,7.65-9.42,18.17-16.01,38.94-28.76,60.48-39.65,11.31-5.92,10.87-4.76,22.57-.25h0ZM311.75,52.42c-2.75-1.41-5.44-2.83-8.23-4.05-2.83-1.11-6.08-.78-8.72.68-9.08,4.35-17.94,9.15-26.57,14.32-13.78,8.29-27.01,17.62-38.86,28.5-3.05,2.63-5.69,5.56-7.26,9.3-14.94,35.1,13.64,126.63,25.44,164.29.9,2.81,2.61,7.92,3.57,10.72.48,1.38.48,2.93.07,4.32-.34,1.23-.62,2.51-.98,3.74,0,0-.9,2.99-.9,2.99,0,0-1.07,2.98-1.07,2.98-1.53,3.94-3.86,7.88-6.85,10.97-2.96,3.1-6.04,5.64-8.88,8.39-2.95,2.77-5.48,5.6-8.32,8.58-8.6,8.96-18.61,16.02-29.08,22.45-3.74,2.29-7.54,4.44-11.49,6.44-15.8-7.18-32.06-14.15-49.31-16.4-19.17-2.45-32.17,4.25-32.29,25.04-.06,11.1,2.81,22.46,6.72,32.81,4.55,7.86,10.7,18.58,16.24,27.08,8.58,13.38,17.62,26.5,28.04,38.48,5.6,6.32,11.53,12.45,18.84,16.66,0,0,1.66.81,1.66.81.55.3,1.12.48,1.68.67,0,0,.85.3.85.3,0,0,1,.34,1,.34,13.01,4.96,23.86,26.31,30.31,38.07,14.63,28.57,26.18,58.59,36.44,88.95,0,0,.23.66.23.66,0,0-.7,0-.7,0,0,0-243.3,0-243.3,0H-.5s0-.5,0-.5c-.33-126.87-1.96-353.52-1.43-480.2,1.35-28.82,14.4-56.81,35.55-76.43,13.83-13.4,31.76-21.66,49.67-27.89C112.34,5.15,142.98-.52,173.76-1.78c20.28-.57,46.82.05,67.16.01,2.63-.12,8.06.49,10.7.64,9.41.8,18.8,1.74,28.17,3.15,6.98,1.26,14.73,1.87,20.74,6.16,9.66,7.06,17.09,16.76,24.05,26.25,0,0,2.05,2.9,2.05,2.9,1.19,1.55,2.25,3.51,1.82,5.56-1.68,7.03-10.41,9.26-16.7,9.52h0Z"/>
      </g>
      <path class="cls-10" d="M201.4,46.13c-21.18,39.46-41.32,90.54-33,135.79,1.33,6.61,3.32,13.08,5.92,19.39,0,0-.89.45-.89.45-3.48-5.97-6.11-12.45-7.98-19.16-8.77-34,1.24-69.71,15.06-100.97,5.71-12.52,12.27-24.68,20.05-36.05,0,0,.84.54.84.54h0Z"/>
      <path class="cls-10" d="M96.99,52.36c-21.56,15.8-39.55,40.43-38.79,68.1.18,4.09,1.06,14.72,1.37,18.99,2.03,25.38,2.82,50.91,7.56,75.93.83,4.14,1.82,8.24,3.22,12.19,1.44,3.79,3.14,7.88,6.47,10.34,0,0-.54.84-.54.84-10.68-7.23-13.72-35.71-15.57-48.17-2.16-16.9-3.41-33.9-4.71-50.87-.45-7.57-1.95-18.2-1.21-25.72,1.56-21.89,14.68-41.34,31.24-54.98,3.32-2.73,6.74-5.3,10.44-7.5l.53.85h0Z"/>
      <path class="cls-10" d="M121.47,188.1c-2.39,28.62-7.63,56.9-14.54,84.75-2.11,8.32-4.43,16.73-7.18,24.87-1.85,5.48-3.86,10.92-6.44,16.11-1.36,2.57-2.69,5.21-4.83,7.35l-.75-.67,1.1-1.75c2.22-4.41,3.67-9.16,5.02-13.91,3.05-10.76,5.56-22.28,8-33.21,3.5-16.23,7.16-34.14,10.72-50.28,2.47-11.17,4.99-22.33,7.91-33.44,0,0,.99.16.99.16h0Z"/>
      <path class="cls-10" d="M36.45,344.78c12.89,33.6,21.31,68.61,26.34,104.26,1.21,9.04,2.12,18.04,2.17,27.2.2,8.12-1.56,16.3-3.8,24.08-2.91,9.77-6.72,19.31-11.23,28.44-3.99,8.09-8.42,15.94-13.54,23.35,0,0-.86-.51-.86-.51,1.94-4.01,3.74-8.1,5.5-12.18,7.18-17.21,13.45-35.04,15.78-53.56.67-7.46-.13-15.04-.91-22.49-2.63-21.99-7.23-43.64-11.31-65.5-3.31-17.5-6.59-35.04-9.11-52.83l.97-.26h0Z"/>
      <path class="cls-10" d="M104.99,463.83c15.7,25.92,46.28,86.34,44.01,115.78,0,0-1,0-1,0-.33-1.9-.72-3.75-1.21-5.6-2.25-8-5.28-15.75-8.27-23.51-6.48-16.66-16.27-40.51-23.11-57.3-3.84-9.59-7.73-19.18-11.32-28.92,0,0,.9-.44.9-.44h0Z"/>
      <path class="cls-10" d="M196.59,213.33c-.92,15.7-7.51,84.93-20.57,91.2,0,0-.37-.93-.37-.93,7.16-4.03,11.61-34.88,13.26-43.79,2.59-15.23,4.63-31.22,6.69-46.58,0,0,1,.09,1,.09h0Z"/>
      <path class="cls-10" d="M226.28,16.21c-15.06,5.66-31.08,10.73-46.5,15.44-10.16,2.21-51.48,10.76-53.71,20.77,0,0-.99-.11-.99-.11.16-1.42.95-2.6,1.83-3.55,9.66-9.5,39.05-15.86,52.46-18.81,11.29-3.36,23.71-7.27,34.98-10.87,3.88-1.24,7.75-2.49,11.6-3.8,0,0,.34.94.34.94h0Z"/>
    </g>
  </g>
</svg>