<?xml version="1.0" encoding="UTF-8"?>
<svg id="Layer_5" data-name="Layer 5" xmlns="http://www.w3.org/2000/svg" viewBox="0 0 400 400">
  <defs>
    <style>
      .cls-1 {
        fill: #e91d2f;
      }

      .cls-2 {
        stroke: #e99e3a;
        stroke-width: 2px;
      }

      .cls-2, .cls-3, .cls-4, .cls-5, .cls-6 {
        stroke-miterlimit: 10;
      }

      .cls-2, .cls-7 {
        fill: #fff;
      }

      .cls-3 {
        stroke: #738939;
        stroke-width: 6px;
      }

      .cls-3, .cls-4, .cls-5, .cls-6 {
        fill: none;
      }

      .cls-3, .cls-5, .cls-6 {
        stroke-linecap: round;
      }

      .cls-7 {
        opacity: .5;
      }

      .cls-4 {
        stroke: #b77e52;
      }

      .cls-8 {
        fill: #00a79d;
        font-family: DINCondensed-Bold, 'DIN Condensed';
        font-size: 40px;
        font-weight: 700;
      }

      .cls-9 {
        fill: #c5905c;
      }

      .cls-10 {
        fill: #efd9c2;
      }

      .cls-11 {
        fill: #e8f0c0;
      }

      .cls-12 {
        fill: #6d3f19;
      }

      .cls-5 {
        stroke-width: 4px;
      }

      .cls-5, .cls-6 {
        opacity: .9;
        stroke: #fff;
      }

      .cls-6 {
        stroke-width: 5px;
      }

      .cls-13 {
        fill: #ffce07;
      }

      .cls-14 {
        fill: #fcbd82;
      }

      .cls-15 {
        fill: #8c3526;
      }

      .cls-16 {
        fill: #f6c9c4;
      }

      .cls-17 {
        fill: #d5eeed;
      }
    </style>
  </defs>
  <rect class="cls-17" width="400" height="400"/>
  <g>
    <circle class="cls-11" cx="161.68" cy="300.25" r="90.81"/>
    <path id="upper" class="cls-14" d="M161.68,249.6c-25.14,0-45.88,10.22-48.91,23.42-.39,1.69.77,3.34,2.38,3.34h93.07c1.61,0,2.76-1.64,2.38-3.34-3.02-13.2-23.77-23.42-48.91-23.42Z"/>
    <rect id="steak" class="cls-15" x="111.58" y="276.36" width="100.26" height="14.08" rx="2.86" ry="2.86"/>
    <rect id="tomato" class="cls-1" x="111.58" y="310.07" width="100.26" height="14.08" rx="2.86" ry="2.86"/>
    <path id="bottom" class="cls-14" d="M161.68,350.91c25.14,0,45.88-10.22,48.91-23.42.39-1.69-.77-3.34-2.38-3.34h-93.07c-1.61,0-2.76,1.64-2.38,3.34,3.02,13.2,23.77,23.42,48.91,23.42Z"/>
    <path id="shadow" class="cls-7" d="M190.44,254.64c-8.1-3.16-18.02-5.03-28.76-5.03s-20.67,1.87-28.76,5.03c.72,4.65,13.32,8.35,28.76,8.35s28.04-3.7,28.76-8.35Z"/>
    <g id="lettuce_-_line" data-name="lettuce - line">
      <path class="cls-3" d="M105.57,293.25c4.79,0,4.79,14,9.58,14s4.79-14,9.58-14,4.79,14,9.58,14,4.79-14,9.58-14,4.79,14,9.58,14,4.79-14,9.58-14,4.79,14,9.58,14,4.79-14,9.58-14,4.79,14,9.59,14,4.79-14,9.58-14,4.8,14,9.59,14,4.8-14,9.59-14"/>
    </g>
  </g>
  <g>
    <circle class="cls-16" cx="289.93" cy="157.5" r="93.43"/>
    <path id="egg_white" data-name="egg white" class="cls-2" d="M340.52,157.69c0,12.58-11.14,23.76-17.48,32.85-8.41,12.07-22.18,23.33-37.69,23.33-15.47,0-13.84-18.88-21.68-36.93-5.94-13.69-25.35-29.36-25.35-41.99,0-16.61,5.73-31.01,15.61-33.53,7.53-1.92,17.45,6.4,29.21,6.4,14.55,0,38.24-1.5,47.26,9.31,4.98,5.97,11.75,20.83,11.09,27.52-.38,3.84-.98,8.08-.98,13.05Z"/>
    <circle id="yolk" class="cls-13" cx="289.93" cy="152.6" r="19.68"/>
    <path id="shadow_on_yolk" data-name="shadow on yolk" class="cls-5" d="M276.26,151.83c.02-1.12.25-4.85,3.13-8.04,2.62-2.91,5.88-3.66,7.04-3.87"/>
    <path id="shadow-2" data-name="shadow" class="cls-7" d="M289.93,132.92c-10.87,0-19.68,8.81-19.68,19.68,0,8.06,4.84,14.98,11.78,18.02l27.38-20.85c-1.37-9.53-9.57-16.85-19.48-16.85Z"/>
  </g>
  <g>
    <circle class="cls-10" cx="94.74" cy="133.26" r="82.07"/>
    <polygon id="cone" class="cls-9" points="94.74 196.12 67.06 117.41 122.41 117.41 94.74 196.12"/>
    <g id="cone_s_lines" data-name="cone&amp;apos;s lines">
      <path class="cls-4" d="M76.11,141.85c1.81-2.02,3.78-4.46,5.7-7.36,1.73-2.61,3.11-5.11,4.21-7.36"/>
      <path class="cls-4" d="M83.92,157.5c3.72-4.4,8.29-10.23,13.08-17.39,4.55-6.8,8.05-12.94,10.65-17.87"/>
      <path class="cls-4" d="M90.52,171.34c4.5-5.23,9.27-11.35,13.98-18.42,4.32-6.49,7.88-12.7,10.82-18.42"/>
      <path class="cls-4" d="M107.65,155.33c-3.08-3.7-6.32-7.91-9.55-12.63-3.87-5.65-7.07-11.05-9.7-15.98"/>
      <path class="cls-4" d="M101.38,171.64c-5.09-5.71-10.53-12.67-15.71-20.99-4.96-7.96-8.69-15.59-11.52-22.42"/>
      <path class="cls-4" d="M114.57,137.77c-2.16-1.66-5.19-4.38-7.91-8.43-2.72-4.04-4.1-7.87-4.82-10.5"/>
    </g>
    <path id="ice_cream" data-name="ice cream" class="cls-12" d="M122.74,104.01c.27-1.58.41-3.19.41-4.85,0-15.88-12.87-28.75-28.75-28.75s-28.75,12.87-28.75,28.75c0,2.18.25,4.31.71,6.35-2.7,1.79-4.48,4.84-4.48,8.32,0,5.51,4.47,9.98,9.98,9.98,1.98,0,3.82-.58,5.38-1.58,4.79,3.57,10.73,5.68,17.16,5.68s12.23-2.07,16.99-5.56c1.59.92,3.43,1.46,5.41,1.46,5.96,0,10.79-4.83,10.79-10.79,0-3.77-1.93-7.08-4.86-9.01Z"/>
    <path id="shadow-3" data-name="shadow" class="cls-6" d="M74.88,93.56c.09-1.48.56-6.38,4.46-10.73,3.54-3.95,7.82-5.1,9.33-5.43"/>
  </g>
  <text class="cls-8" transform="translate(90.7 41.25)"><tspan x="0" y="0">food icons design</tspan></text>
</svg>