<?xml version="1.0" encoding="UTF-8"?>
<svg id="Layer_2" data-name="Layer 2" xmlns="http://www.w3.org/2000/svg" viewBox="0 0 600 600">
  <defs>
    <style>
      .cls-1 {
        fill: #fcfcfc;
      }
    </style>
  </defs>
  <rect class="cls-1" y="-.13" width="600.13" height="600.13"/>
  <g>
    <path d="M409.21,265.63s-.04-.03-.07-.06c0,0,.01.01.02.02.02.01.03.03.05.04Z"/>
    <path d="M402.28,300.75c-.21-1.56-.71-3.05-1.28-4.51,0,0-.02-.09-.11-.31-.34-.97-.75-1.89-1.23-2.79-.59-1.05-.52-2.72-2.68-5.37-.82-.89-1.91-1.48-2.88-2.18-.79-.42-1.9-.67-1.93-.7-.89-.27-1.5-.43-2.11-.58-.74-.72-1.46-1.48-2.16-2.31-.15-.23-.3-.47-.45-.72-.19-.53-.28-.83-.49-1.76-.67-2.24-1.17-4.57-2.32-6.62.32.15.63.29.95.43.01,0,.02,0,.03.01.11.05.22.1.33.15,3.11,1.35,6.32,2.37,9.77,2.21,2.01.2,3.81.26,5.75.09.67,1.97,1.35,3.95,1.99,6.01.08.26.16.52.24.78-.02-.27-.03-.54-.05-.81-.11-2.09-.51-4.12-1.11-6.09.13-.02.26-.02.39-.04,1.71-.34,3.34-1.01,4.91-1.75.83-.44,1.26-.64,2.04-1.24.34-.12.65-.22.92-.47.17-.09.32-.2.43-.34.61.14,1.23.22,1.86.19,1.34-.01,1.69-.19,2.35-.38,1.2-.29,2.18-1.05,3.15-1.79,1.23-.96,2.08-2.3,2.84-3.67.2-1.78.93-3.18,1.97-4.23.09-.23.17-.45.25-.69.08-.59.26-1.16.51-1.7.17-.64.36-1.4.6-2.37,0,.02,0,.04-.01.05-.01.06-.05.21-.09.44,0-.03.02-.07.03-.11,0,0,0,0,0-.01,0,0,0,0,0,0,.47-1.78.82-3.63.97-6.42-.08-2.14-.47-4.25-.52-5.34-.37-2.52-.35-7.25-.35-9.57.16-1.78.79-3.55,1.24-5.51-.59,1.6-1.36,3.14-1.75,4.8-.31,2.12-.49,3.94-.58,6.26-.38,4.91.32,7.08-.03,9.93-.73,4.1-2.04,7.29-2.82,8.87-.98,1.88-.85,1.69-1.88,3.2-.93,1.29-.68.96-1.86,1.86-.67.52-1.41.93-2.23,1.15-.3.11-.92.29-2.63.22-1.47-.2-1.98-.53-2.99-1.36.04.04.03.03-.05-.04-.05-.04-.1-.08-.15-.13.06.05.1.08.14.11-.03-.03-.07-.06-.12-.11-1.32-1.32-2.34-2.91-3.63-4.25-.97-.99-2.09-1.81-3.19-2.65-.61-.45-1.15-1-1.84-1.31-.89-.46-2.91-.29-3-.44-.89-.24-1.54-.98-2.32-1.42,0,0,0,0,0,0,2.81-3.94,5.02-8.33,6.68-12.95,4.16.55,8.7.34,12.32-2.05,1.08-.78,1.9-1.88,2.84-2.82,1.27-1.28,2.54-2.61,3.47-4.2.16-.3.29-.62.46-.92.32-.02.65-.04.97-.06-.38.41-.77.8-1.17,1.17.63-.36,1.26-.77,1.85-1.23.06,0,.13-.01.19-.02-.05,0-.1-.01-.14-.02.3-.23.58-.48.86-.73.4-.59.89-1.11,1.45-1.54,1.38-1.71,2.33-3.77,2.45-6.08.07-2.98-.18-6.02-.87-8.93-.13-.39-.23-.78-.31-1.18-.36-1.31-.81-2.59-1.37-3.81.15.26.28.51.43.77v-.13c-.05-.08-.08-.17-.08-.27v-.22c-.08-.16-.16-.32-.23-.49-.23-.52-.53-1-.83-1.48-.24-.39-.41-.75-.73-1.07-.08-.04-.15-.09-.21-.16-.02-.02-.04-.04-.06-.06-.03-.02-.06-.05-.08-.07,0,0,0,0,0,0,.07.12.14.25.21.37-.15-.22-.32-.43-.48-.64-.04-.04-.07-.08-.1-.13-.07-.09-.13-.18-.2-.27-.03-.03-.04-.05-.06-.08-.99-1.25-2.12-2.36-3.34-3.36-.47-.68-.94-1.36-1.39-2.05-1.04-1.36-1.45-2.24-2.6-3.98-1.61-2.37-2.49-3.29-3.51-5.15-1.84-3.4-3.65-5.33-4.98-7.61-2.4-3.73-7.31-10.84-11.25-15.93-6.15-7.61-13.39-14.29-20.77-20.69,5.36,7.27,10.69,14.57,16.03,21.85,3.67,5.71,7.53,11.29,11.63,16.7,1.49,2.01,3.09,3.92,4.77,5.77,1.76,2.5,3.83,4.73,6.01,6.87.26.31.53.61.79.91-.07-.03-.13-.07-.2-.1-3.48-2.04-7.43-2.77-11.37-2.62-3.61,0-7.22,0-10.82,0-1.73.02-3.47-.12-5.17.31-1.97.35-3.81,1.19-5.67,1.92-3.45,1.06-6.8,2.67-9.5,5.25-2.3,1.88-3,5-3.52,7.9-.91,4.35-.1,8.97,2.42,12.54,0,0,0,0,0,.01,1.29,2.14,2.73,4.28,4.65,5.8,1.7,1.01,3.76,1.14,5.67,1.2.14,0,.28,0,.42,0-.64-.16-1.22-.33-1.84-.57-1.96-.71-3.98-1.62-5.1-3.59-1.39-2.06-3.5-6.73-3.9-7.91-.78-2.62-.66-3.07-.11-5.57.72-2.36.58-2.26,1.24-3.26,1-1.25,4.37-3.28,7.06-4.21,1.24-.5,1.94-.55,3.91-1.22,2.32-.93,2.65-1.12,4.64-1.52,4.92-.54,10.45-.08,15.47-.23,4.95-.15,7.82.72,11.9,2.66,5.48,2.41,8.8,5.36,10.65,10.52.56,1.5.79,2.65,1.05,4.32.32,1.67.49,2.59.3,3.93-.48,2.63-2.08,5.17-3.95,7.22-1.8-.3-3.97-.9-6.07-1.69.27-.21.53-.44.77-.68,2.1-1.93,2.57-5.16,1.87-7.93-.13-.58-.3-1.11-.51-1.59-.27-1.13-.68-2.18-1.25-3.06-1.38-1.83-3.41-1.47-5.02-.32-.68.14-1.37.39-2.06.77-2.85,1.51-4.23,5.37-3.42,8.61.27,1.54,1.11,2.69,2.2,3.54.34.78.81,1.49,1.44,2.05,1.05.72,2.29.46,3.4-.06,2.43.58,4.92.75,7.4.62-.3.29-.54.65-.87.91-1.23.97-2.54,1.79-3.82,2.66-.91.74-1.81,1.51-2.84,2.05-3.96,1.8-7.44,2.9-11.29,3.94.62-1.77,1.17-3.56,1.64-5.38.78-4.29.8-8.73.47-13.08-.06.96-.16,1.98-.28,3.01.03-.43.03-.86,0-1.3-.03-.42,0-.67-.07-.03-.1.89-.25,1.69-.59,2.58-1.16,2.62-1.51,5.51-2.37,8.23-.69,2.31-1.68,4.53-2.81,6.8-1.45-.29-2.9-.59-4.38-.69-2.88.07-5.69-.79-8.52-1.23-.7-.13-2.27-.82-3.53-1.42-1.35-.6-2.77-1.11-3.97-2.02-1.01-1.08-1.95-2.28-2.91-3.46,3.39.3,6.83.65,10.18-.02,2.26-.53,4.34-1.83,6.02-3.53,1.55-1.79,2.46-2.04,3.52-4.27,1.88-3.67,2.56-11.43-4.63-9.73-1.23.16-2.46.59-3.48,1.32-1.12.09-2.24.49-3.27,1.25-2.96,2.74-2.16,8.52.79,10.96.48.32,1.02.55,1.58.72-.46.26-.97.5-1.54.74-2.96,1.04-6.29,1.58-9.52,2.16-.83-1-1.67-1.99-2.61-2.86.55,1.01,1.1,2.02,1.65,3.04-.16.03-.32.06-.48.09.18.01.37.03.56.05.42.78.85,1.56,1.26,2.35.85,1.61,1.6,3.39,2.98,4.57,2.2,1.68,4.7,3.19,7.39,3.68,2.77.15,5.66.36,8.35-.54.31-.09.4-.12.85-.21,1.19-.25,2.4-.47,3.59-.71-.59,1.17-1.22,2.35-1.87,3.56-.95,1.5-2.06,2.89-2.78,4.54h0c-.47,1.15-.56,2.57-.14,3.76-2.07-.77-4.23.58-6.08,1.45-2.08.94-3.25,1.36-5.07,1.73-3.3.81-6,1.39-9.68,2.37-3.65,1.07-6.01,1.91-8.93,2.54-4.41.88-8.88,1.43-13.33,2-4.67.52-11.41.2-14.93-.77-2.29-.57-3.23-.79-5.39-1.86-4.22-1.54-8.16-3.76-11.95-6.16-3.2-1.93-6.65-3.4-9.84-5.37-1.49-.78-3.14-1.27-4.83-1.24-1.17-.12-2.31.13-3.34.71-.99.66-2,1.4-2.63,2.42-.92,1.85-1.34,4.07-.86,6.1.67,2.9,2.5,5.22,4.43,7.43,1.95,3.17,3.45,6.61,5.33,9.96.65,1.32,1.71,2.32,2.58,3.48,1.1,1.75,2.21,3.23,4.31,5.33,2.67,2.28,4.63,3.35,7.23,4.98.76.53,1.7.7,2.52,1.11,1.43.7,2.08.75,3.05,1.3,2.81,1.37,7.44,6.65,8.8,8.63,1.1,1.65.62.8,1.32,2.26,1.11,2.06,1.18,2.41,2.15,4.1,1.91,3.11,4.84,7.54,6.91,9.12,1.57,1.72,3.39,3.25,5.37,4.48,1.42,1,2.89,2.03,4.56,2.56,2.09.73,4.27,1.13,6.46,1.42,1.91.31,3.84.53,5.78.36,4.68-.34,9.38-.56,14-1.35,2.09.09,4.52-.5,5.59-.84.64-.13,1.96-.46,3.33-.86,1.13-.5,2.28-.95,3.32-1.61.08,1.4.12,2.37.12,2.97-.17,1.01-.56,2.49-1.01,3.73-.91,1.58-2.02,2.98-2.91,3.85-.61.52-2.93,1.72-4.56,2.66-1.3.87-1.61.94-3.63,1.67-2.64,1.17-3.51,1.39-6.78,1.85-2.12.36-8.32-.27-10.54-1.06-3.01-.36-10.07-3.1-12.32-4.2-5.24-2.67-8.19-5.69-11.88-8.9-2.03-1.78-4.42-3.11-6.39-4.96-1.16-.88-3.23-3.23-5.41-5.15-1.75-1.32-3.47-2.73-5.42-3.75-.67-.41-3.19-.87-2.67-.75-2.76-.59-3.35-.76-6.56-1.6-2.03-.44-1.6-.2-3.57-.77-7.55-2.35-13.93-7.8-20.33-13.78,4.9,7.15,10.86,14.1,19.14,17.33,2.02.74,2.79.73,3.84,1.04,3.55,1.08,4.41,1.2,7.08,1.75,1.85.46,1.97.7,3.99,2.18,3.19,2.12,4.81,4.5,8.4,7.49,1.92,1.59,4.1,2.87,5.95,4.56,2.93,2.58,6.82,6.29,11.63,8.65,4.09,2.09,10.45,4.28,13.29,4.68,5.96,1.6,12.66,2.17,18.44-.39,1.21-.68,2.52-1.15,3.75-1.8,1.16-.7,2.18-1.59,3.32-2.32,1.7-1.23,3.52-2.43,4.39-4.41.69-1.02,1.2-2.15,1.59-3.3,1.1-1.81,1.71-3.92,1.93-5.18.15-.88.28-1.79.15-2.68,0-.01,0-.03-.01-.04,0-.03,0-.06,0-.08,0-.53-.02-1.08-.15-1.6.85-.78,1.65-1.6,2.38-2.49,1.14-1.62,2.05-3.42,2.68-5.3,1.09-3.51,1.59-5.42,1.2-9.85ZM408.49,270.39c.2.17.4.34.61.5-.06.05-.12.1-.18.16-.16.11-.32.21-.48.31.06-.32.07-.65.04-.97ZM404.36,265.39c.38.47.74.95,1.1,1.43,0,0,0,0,0,0-.61-.86-1.49-1.55-2.16-2.36-.48-.48-.95-1.01-1.43-1.51.87.78,1.74,1.55,2.5,2.44ZM397.79,272.52c.15.05.3.08.44.08.4.12.79.23,1.2.29.07.01.14.03.21.04-.66-.06-1.31-.14-1.97-.23.04-.06.08-.12.12-.19ZM403.21,229.66c.1-.45.2-.91.28-1.37-.2,1.43-.44,2.82-.7,4.05.1-.9.23-1.79.42-2.68ZM392.84,258.25c.21-.03.44,0,.66.04-.07.04-.12.09-.12.17,0,.04.02.09.03.13-.23-.04-.46-.07-.7-.06.04-.09.08-.19.13-.28ZM306.5,273.71c-.56-.81-1.11-1.66-1.67-2.56.67.83,1.28,1.7,1.87,2.59-.07-.03-.13-.04-.19-.03ZM336.2,290.4c-.24-.4-.47-.81-.7-1.21-.04-.1-.09-.2-.13-.3-.08-.12-.14-.3-.2-.48.1.11.2.22.3.33.11.19.22.38.33.57.09.34.27.67.4,1.01,0,.03,0,.05,0,.08ZM338.74,292.77c-.2-.38-.41-.76-.62-1.14.33.38.64.75.93,1.11-.14-.12-.24-.07-.32.03ZM339.59,293.85c-.18-.37-.35-.74-.53-1.1.44.54.83,1.05,1.14,1.49-.02.29.04.59.14.88-.25-.42-.49-.85-.75-1.27ZM353.38,315.51c-1.42-1.57-2.75-3.26-4.09-4.93-.21-.35-.41-.71-.62-1.06,2.62,3.27,5.56,6.63,8.05,9.8-1.13-1.25-2.23-2.54-3.34-3.81ZM362.04,313.3c-3.68-1.37-7.35-3.47-9.63-5.73-1.64-1.29-3.34-3.06-4.93-5.31-1.23-2-3.65-7.11-5.49-10.29-1.32-2.18-3.04-4.08-4.81-5.9-1.82-2.26-4.11-4.06-6.63-5.49-4.67-2.85-9.49-5.43-14.22-8.15-2.14-1.4-3.97-2.57-5.9-3.77-.64-.75-1.27-1.5-1.89-2.27-2.48-3.12-4.17-5.22-5.71-7.91-.26-.42-1.39-2.1-1.55-2.33-.08-.13-.18-.27-.25-.38-.05-.08-.09-.15-.12-.22-.12-.55-.32-1.1-.78-1.36.14-.07.29-.14.43-.21.17-.08.34-.14.51-.22.09-.04.24-.09.36-.12,1.13-.15,3.6.11,3.75.21,1.73.51,3.19,1.56,4.76,2.41,4.94,2.3,9.42,5.44,14.28,7.87,1.1.56,2.2,1.04,3.3,1.5.15.21.31.42.47.63,0,.03,0,.05,0,.08.11.71.37,1.4.81,1.98.06.05.12.11.18.16.25.42.57.78.86,1.17.12.19.29.45.38.59.01.01.01.02.02.03.9,1.64,2.01,3.19,3.33,4.51.65.65,1.21,1.18,1.72,1.65.09.13.2.29.29.42.19.41.45.77.92.84.07-.01.13-.04.19-.07.27.22.53.42.79.62.63.69,1.33,1.33,2.06,1.92.83.89,1.7,1.75,2.61,2.57-.03-.03-.03-.02.07.06.79.87,1.7,1.6,2.64,2.3.14.09,1.32,1.29,2.29,1.92,2.77,1.68,4.53,3.01,6.05,4.4.28.26.57.55.86.84.68.73,1.34,1.47,1.95,2.26.09.43.21.84.37,1.25.42,1.84.28,1.15.82,3.36.15.96.48,1.86.77,2.79,1.03,4.09,2.55,8.18,4.87,11.72-.27-.11-.54-.22-.81-.32ZM399.79,304.85c-.43,2.39-1.41,4.96-2.67,6.76-1.17,1.46-2.97,3.05-3.55,3.53-1.03,1.02-2.21,1.54-4.16,2.57-1.69.65-5.56,1.96-6.26,2.14-.45.12-.92.19-1.38.24-.34-.07-.67-.14-.98-.2-1.54-.46-3.25-.94-4.92-1.34-.13-.04-.25-.08-.38-.13-.92-.27-1.86-.43-2.8-.61-.87-.22-1.74-.46-2.63-.72.47.05.94.09,1.41.11.39.05.78.13,1.16.19-.82-.36-1.67-.63-2.54-.85-.3-.09-.6-.18-.89-.28-.35-.77-.79-1.51-1.14-2.29-1.33-3.03-2.93-5.93-4.49-8.84-1.02-2.12-1.44-3.3-1.76-4.57-.49-2.97-1.12-5.96-2.63-8.6-1.01-1.42-1.94-2.96-3.27-4.1-1.14-.89-2.27-1.79-3.41-2.68-1.73-1.87-3.07-2.69-5.46-4.58-.17-.13-.33-.26-.49-.38-1.24-1.11-2.62-2.32-3.41-3.13-2.28-2.41-4.45-4.04-7.04-7.09-.56-.69-1.2-1.3-1.85-1.91,3.34.8,7.06,1.33,10.85,1.15,2.05.03,4.1-.12,6.13-.36,3.9,2.86,8.04,5.38,12.12,7.97,3.14,2.13,4.79,5.12,6.66,9.08,1.72,3.44,3.41,6.89,5.15,10.32,1.21,2.11,2.28,4.33,3.83,6.21-.73-1.37-1.27-2.81-1.81-4.26-1.86-4.88-3.48-9.85-5.61-14.63-1.36-3.09-2.73-6.37-5.49-8.48-1.77-1.57-4.02-2.37-6.18-3.25-2.6-1.05-5.23-2.06-7.85-3.06,1.44-.19,2.88-.41,4.31-.65,2.16-.33,4.34-.54,6.48-1.02,3.63-.76,7.09-2.02,10.59-2.97-.96,1.15-.73,3.23.1,4.37.41.41,1.02.56,1.54.79,1.14.58,2,1.26,2.17,1.48.89.8,1.11.82,1.77,1.57.57.74,1.07,1.53,1.67,2.25.14.26.24.47.33.64.07.2.15.4.24.61.04.09.08.19.12.29.08.3.17.69.37,1.43.06.51.16,1.02.31,1.51.08.82.29,1.62.59,2.38-.04-.07.32.92.47,1.2.28.5.78,1.83,1.38,2.43.77,1.28,2.18,2.06,3.55,2.64,1.36.52,2.72,1.07,4.08,1.6,1.64.67,1.54.88,2.87,1.88.1.09.21.18.3.25,1.9,2.16.97,1.59,2.56,5.28,1.1,2.11,1.57,3.78,1.89,4.96.03.23.08.45.11.68-.04,1.96.05,1.28-.12,2.49Z"/>
    <path d="M310.44,83.11c-1.87-3.03-3.6-6.32-6.42-8.64,1.7,3.15,3.47,6.5,6.42,8.64Z"/>
    <path d="M312.03,76.89c-.95-2.23-2.37-4.23-3.78-6.19,1.25,3.99,2.89,8.03,5.61,11.24-.77-1.83-1.09-3.25-1.83-5.05Z"/>
    <path d="M288.7,85.03c4.09-1.07,8.3-1.64,12.49-2.09-4.21-.48-8.48-.66-12.7-.24-3.71.58-7.28,1.79-10.73,3.26-4.59,2.15-8.4,5.5-12.34,8.62-2.36,1.94-8.24,6.5-9.07,7.13-4.87,3-11.26,6.17-15.31,7.11-5.49.96-8.45.8-13.83.84-4.4-.03-8.81.13-13.19-.25-3.68-.39-5.68-.89-9.45-2.49-3.24-1.5-6.9-3.63-11.06-4.85-.52-.16-1.05-.31-1.57-.45.36.18.71.37,1.06.56,4.03,2.09,7.44,5.12,11.3,7.46,6.49,3.99,14.31,4.13,21.69,4.01,5.91-.07,11.98.24,17.72-1.41,5.26-1.79,10.23-4.33,14.93-7.28,6.47-4.66,14.16-11.61,19.45-15.01,2.18-1.48,7.93-4.09,10.61-4.92Z"/>
    <path d="M187.66,107.02c.68.03,1.35.1,2.02.2.69.19,1.4.28,2.11.34.06,0,.11,0,.17.01.03,0,.05,0,.08.01.69.17,1.35.42,2.06.54-.04,0-.05-.03-.06-.07.09.03.18.06.26.09.67.01,1.03-.86.6-1.35-.11-.08-.24-.16-.37-.23,0,0,0-.01,0-.02-.03,0-.06-.02-.08-.02-.72-.41-1.65-.78-2.35-1.02-.02,0-.05-.01-.07-.02-.3-.1-.62-.18-.94-.25-1.12-.29-2.25-.55-3.41-.55-.45-.04-.89,0-1.27.26-1.04.98-.03,2.3,1.25,2.08Z"/>
    <path d="M189.8,110.56c-2.49-.59-5.03.15-7.43.83,2.53.3,4.96-.42,7.43-.83Z"/>
    <path d="M177.67,118.79c3.45-.44,7.73-1.46,10.65-2.21-3.67-.62-7.44.42-10.65,2.21Z"/>
    <path d="M177.07,123.82c2.23-.22,4.4-.88,6.48-1.66-2.52.03-5.04.22-7.5.8-1.12.15-2.2.57-3.08,1.28-.09.08-.29.23-.07.12,1.29-.54,2.76-.44,4.17-.55Z"/>
    <path d="M180.9,129.01c.47-.22,1.03-.48,1.08-1.06.06-.63-.56-1.14-1.17-1.01-2.21.45-4.2,1.3-5.96,1.89-.85.36-1.69.74-2.48,1.23-.36.17-.73.34-1.09.5,1.67-.13,3.3-.52,4.96-.71,1.57-.13,3.18-.27,4.66-.84Z"/>
    <path d="M151.4,191.87c4.99-4.68,9.53-9.9,12.68-16.02,1.77-3.4,3.13-7,4.59-10.54.96-2.32,2.17-4.53,3.03-6.9,1.22-3.96,2.72-6.74,4.44-9.96,1.38-2.62,2.52-4.91,4.1-7.33-3.32,3.4-6.2,7.23-8.88,11.15-1.78,2.75-2.43,4.74-3.62,6.83-3.4,5.42-5.75,12.71-8.18,16.79-3.97,7.46-9.43,14.33-14.43,19.68-1.18,1.14-2.22,2.4-3.01,3.83.39-.39.7-.76,1.09-1.12,2.23-1.87,5.82-4.31,8.21-6.41Z"/>
    <path d="M145.01,200.46c-.98.55-1.76,1.36-2.46,2.23.99-.53,1.78-1.35,2.46-2.23Z"/>
    <path d="M142.38,212.32c.21-.05.6-.52.68-.64.53-.53,1.04-1.08,1.42-1.73.91-1.39,1.34-1.86,2.34-2.78.24-.13.75-.52.61-.43.31-.14.59-.41.61-.76.04-.34-.15-.61-.41-.77-.05-.24-.23-.46-.47-.53-.44-.12-.77.12-1.07.43-1.99,1.44-3.92,3-5.11,5.21-.86,1.05.12,2.56,1.41,2.03Z"/>
    <path d="M146.47,219.26c.92-1,2.12-2.46,3.31-4.23.79-1.06,1.76-1.99,2.45-3.13.17-.36.42-.74.41-1.15,0-.44-.38-.83-.8-.91-.84-.14-1.25.63-1.6,1.37-.15.15-.31.31-.49.46-.15-.03-.34.03-.52.19-2.06,1.63-4.03,4.7-4.73,6.22-.48,1.26,1.11,2.3,1.96,1.18Z"/>
    <path d="M146.56,230.02c1.43-1.58,2.83-3.21,4.14-4.9,1.06-.96,2.28-2.01,3.39-2.96.38-.28.75-.58,1.09-.91.42-.35.8-.72.94-1.24.24-.82-.6-1.66-1.42-1.49-.27.04-.48.18-.65.35,0,0,0,0-.01,0-.14.13-.41.31-.45.34-.02.01-.04.02-.06.04-2.29,1.48-4.59,3.03-6.42,5.07-.88.98-1.66,2.05-2.31,3.2-.25.43-.51.9-.47,1.42-.06,1.13,1.38,1.85,2.23,1.09Z"/>
    <path d="M183.02,283.43c1.42,1.57,3.63.17,3.29-1.81-.2-5.45-1.09-10.88-2.78-16.07-.59-1.6-1.12-3.23-1.69-4.84-1.13-2.59-2.6-5.04-4.15-7.41-2.55-4.39-7.11-8.6-9.75-11.01-2.57-2.17-4.19-2.93-6.07-5.26-1.8-2.45-3.46-7.71-5.02-11.41.87,4.38,1.12,9.1,3.29,13.09,1.27,2.05,3.05,3.7,4.81,5.33,2.53,2.8,5.17,5.54,7.44,8.56,2.48,3.54,3.39,4.94,5.37,8.76.82,1.7,1.22,3.57,1.96,5.31.74,2.44,1.41,4.91,1.84,7.43.26,2.36.68,4.7.99,7.05.01.2.03.4.04.6-.02-.32,0-.13,0,.16,0,0,0,0,0,0,0,0,0,0,0,0,0,0,0,0,0,0,0,.06,0,.12,0,.19h0c-.04.48.11.96.42,1.33Z"/>
    <path d="M182.58,281.75c0,.05,0,.11,0,.16h0c0-.06,0-.12,0-.16Z"/>
    <path d="M223.51,261.48c-.26,3.41-2.45,7.74-3.37,11.47-1.46,5.03-2.07,10.25-2.88,15.41,3.07-6.16,5.09-12.82,6.13-19.61.31-2.39.84-4.91.11-7.27Z"/>
    <path d="M224.23,272.39c1.99-6.57,3.2-13.57,1.73-20.37-1.02,6.75-2.21,13.51-1.73,20.37Z"/>
    <path d="M234.61,227.19c.55-6.57.6-13.15.59-19.74-.09-7.07-.41-14.59-1.66-22.49-.52,8.05-1.29,16.07-2.02,24.11-.35,5.27-.36,10.57-.78,15.84-.45,4.91-.37,9.83-.37,14.76-.18,3.77-.37,7.54-.67,11.3-.22,2.77-.54,5.11-.98,7.34-.28,1.05-.56,2.11-.82,3.17-.12.77-.48,1.7.05,2.38.57.71,1.79.51,2.07-.37,2.7-6.42,3.97-13.34,4.14-20.29.53-5.32-.12-10.69.44-16.02Z"/>
    <path d="M228.88,188.74c1.32-1.47,2.93-3.52,4-4.77,1.77-1.92,3.6-3.78,5.33-5.74,2.64-2.92,4.78-5.96,8.04-8.19-3.6,1.02-6.52,3.5-9.17,6.05-3.7,3.52-6.37,7.91-8.21,12.65Z"/>
    <path d="M241.7,167.42c-3.48,2.35-6.43,5.43-8.46,9.12,3.09-2.53,6.62-6.11,8.46-9.12Z"/>
    <path d="M193.16,128.04c-5.64,8.25-9.55,17.65-11.31,27.49,2.35-4.42,4.23-7.97,6.33-12.64,2-4.83,3.5-9.85,4.98-14.85Z"/>
    <path d="M186.61,160.94c.77-1.72,1.66-3.39,2.36-5.14,1.75-3.66,2.81-7.6,3.9-11.49-3.44,4.9-5.74,10.61-6.35,16.58,0,.26-.03.39.09.05Z"/>
    <path d="M189.98,172.64c2.14-4.83,4.07-11.09,4.92-16.72-2.92,5.11-4.78,10.8-4.92,16.72Z"/>
    <path d="M197.86,174.22c.38-2.6.46-5.23.53-7.85-1.84,4.77-2.69,9.99-2.21,15.09.65-2.71,1.3-4.78,1.68-7.25Z"/>
    <path d="M197.51,162.31c-2.45,5-3.94,10.42-4.4,15.96,2.45-5,3.94-10.42,4.4-15.96Z"/>
    <path d="M405.19,78.04s-.03.04-.04.05h.24c.06-.02.13-.03.2-.04,0,0,.02,0,.02,0,.2-.11.45-.11.66-.02.05,0,.1.01.14.03.09,0,.18.02.26.04.09,0,.18.02.26.05.05,0,.1.02.14.03.16,0,.31,0,.47,0,.05,0,.1,0,.15,0,.07,0,.13.01.19.04.12.04.08.04-.12,0,.04.04.28.04.35.06.13.04.24.09.36.15,0,0,.01,0,.04,0,0,0,0,0,0,0,.04.02.07.03.11.05.04.02.08.03.11.05,1.13.49,1.85,1.08,4,2.05,2.72,1.14,5.44,2.6,8.4,2.98,2.93.38,6.09.54,8.72-1.05-1.44.06-2.87-.13-4.22-.63-1.84-.71-3.93-1.54-5.17-2.32-2.73-1.86-5.62-3.51-8.62-4.89-1.12-.17-2.19-.53-3.16-1.07-.03.04-.07.09-.1.13-2-.16-4.05.37-5.86,1.3-2.71,1.16-5.22,2.73-7.46,4.64,2.87-.63,7.07-1.42,9.94-1.61Z"/>
    <path d="M319.2,75.64c3.62-.27,7.19-.98,10.82-1.2,3.67-.43,8.94,0,14.34.12,6.14,0,10.38.57,15.48,1.97,2.99.68,3.9.53,6.15,1.28,2.61,1.06,5.34,1.79,7.91,2.93.04.02.09.05.16.09,1.87,1.06,3.72,2.17,5.63,3.16,2.11,1.05,1.95.85,4.13,2.19,1.89,1.08,3.77,2.18,5.55,3.44,2.38.99,4.63,2.66,6.53,4.66.18.15.37.31.56.46,1.92,1.49,3.51,3.24,6.09,5.69,3.17,3.05,5.55,5.48,6.76,9.03.81,2.23.54,6.23,0,9.95-1.55-1.37-3.13-2.71-4.69-4.08-.49-.47.35.52.46.69,1.28,1.74,2.62,3.43,3.95,5.13-.17.97-.35,1.9-.52,2.74.3-.73.61-1.47.92-2.23.84,1.09,1.68,2.19,2.48,3.32.98,1.57,2.97,4.59,4.54,6.94,1.28,1.65,2.1,3.47,3.35,6.19.63,1.31,1.24,2.63,1.83,3.96.04.07.08.12.11.19.83,1.48,1.47,3.14,1.94,4.8.01.03.02.05.03.08.95,2.43,1.8,7.81,1.55,10.87-.33,4.14-.56,4.44-1.7,8.56-.49,1.25-1.02,2.48-1.54,3.72-.29.83-.61,1.63-1,2.42-.72,1.8-1.4,3.62-1.92,5.49-.83,3.92-.62,7.98-.11,11.95.19.29.34.6.45.93.32-4.41.72-8.33,2.14-12.22,1.07-2.4,2.32-4.55,3.31-6.6,1.04-1.97,2.23-3.88,2.85-6.04,3.43-10.04.78-20.1-4.1-29.14-2.25-5.08-6.14-9.04-9.67-13.23-1.25-1.32-2.57-2.56-3.92-3.77,1.83-4.85,3.11-10.12.67-14.9-1.48-3.27-3.95-5.91-6.4-8.48-2.01-2.11-4.13-4.12-6.39-5.97,0,0,.02-.02.02-.03-.04-.03-.07-.06-.11-.09-.24-.2-.48-.41-.71-.61-.07-.06-.15-.11-.22-.17-.07-.07-.12-.12-.01-.02-.06-.06-.12-.12-.18-.18.18.17-.02,0-.06-.03-.12-.1.16.1,0-.02-.09-.07-.2-.13-.29-.2-.07-.05-.13-.1-.2-.14.12.08.05.05-.03,0-.04-.03-.08-.06-.12-.09-.09-.04-.18-.09-.27-.12,0,0,0,0,0,0,0,0,0,0,0,0,0,0-.02-.01-.02-.02-.06-.02-.17-.05-.2-.06.31.07-.1-.03-.14-.05-.13-.06-.24-.15-.36-.24-.22-.03-.4-.21-.42-.44-.88-.61-1.78-1.2-2.7-1.75-2.78-1.98-6.12-3.86-8.79-5.26,4.85-2.06,9.19-5.23,12.71-9.15-.02.02-.04.05-.06.06.02-.02.05-.05.07-.07.02-.02.04-.04.06-.06.04-.04.04-.04.03-.03.16-.17.32-.34.48-.52,0,0,0,0,.02-.02.69-.78,1.52-1.46,2.01-2.39-2.61.71-6.33,2.28-8.97,4.01-2.94,2.05-5.38,4.73-7.6,7.53-.48-.24-.93-.47-1.33-.66-2.11-1.16-4.13-2.51-6.36-3.44-1.61-.64-3.3-1.03-4.88-1.73-3.48-1.54-7.39-1.73-9.7-2.37-6.94-2.09-14.27-1.87-21.44-1.54-5.83.01-11.97,1.86-16.4,3.28-1.18.39-1.94.59-3.22,1.01-.86.31-1.69.64-2.61.74.53.24,2.28-.11,3.3-.23Z"/>
    <path d="M414.49,88.44c4.93,1.35,10.34,1.46,15.07-.67-5.03-.65-10.15-.77-15.07.67Z"/>
    <path d="M422.02,93.88c5.08,1.03,10.9.57,14.92-3.01-2.44.59-4.96.67-7.43,1.08-2.53.48-5.04,1.12-7.49,1.94Z"/>
    <path d="M426.2,99.31c3.91,1.81,8.29,2.08,12.47,1.16-3.12-1.49-8.73-1.63-12.47-1.16Z"/>
    <path d="M281.04,286.54c-2.28-2.46-4.41-5.06-6.79-7.42-3.81-3.93-7.54-7.22-11.27-10.75,2.99,5.59,6.72,10.87,11.25,15.33,3.6,3.63,7.9,6.43,12.35,8.91-1.41-1.8-3.8-4.11-5.54-6.07Z"/>
    <path d="M289.03,303.37c-1.29-1.19-2.28-2.17-3.42-3.24-3.3-3.18-7.1-5.81-11.18-7.89,3.94,4.55,9.24,9.2,14.6,11.13Z"/>
    <path d="M344.14,130.85c-3.67-2.53-8.13-3.42-12.52-3.64-4.21-.34-8.49-.46-12.62.59-3.71.81-10.21,3.97-11.44,5.88,4.95-3.12,10.92-4.4,16.7-4.7,6.21,0,14.8-.03,19.83,4.33,1.18.96,2.32,3.02,3.44,5.2,3.15,6.16,6.65,12.13,10.04,18.16-1.96-5.55-4.26-10.98-6.85-16.26-1.81-3.39-3.21-7.4-6.59-9.56Z"/>
    <path d="M393.83,115.1c.99-1.01,1.91-2.07,2.82-3.14-.87.72-1.75,1.42-2.62,2.13-3.85,2.92-8.46,5.91-9.38,11.02-.7,4.06.6,8.11,2.13,11.82.81,1.87,1.58,3.76,2.47,5.6.16-.17.32-.34.48-.51-.39-1.29-.75-2.6-1.15-3.98-1.34-4.47-2.57-8.52-1.98-12.71.45-3.62,3.99-7.06,7.24-10.23Z"/>
    <path d="M242.29,128.51c-7.91,4.91-14.87,12.29-17.91,21.21,2.54-3.62,5.38-6.3,8.27-9.56,3.3-3.81,6.33-7.84,9.64-11.64Z"/>
    <path d="M238.91,148.79c-6.14,6.15-10.25,14.01-13.43,22.02-.04.1-.08.2-.12.3.6-.72,1.19-1.44,1.77-2.18,2.41-3.11,4.71-6.32,6.63-9.77,2.04-3.7,3.37-7.01,5.14-10.37Z"/>
    <path d="M233.9,171.27c2.12-2.93,3.71-6.22,4.64-9.72-2.18,2.9-3.78,6.2-4.64,9.72Z"/>
    <path d="M204.41,301.68c3.79-3.95,7.62-7.95,10.28-12.78.25-.45.5-.91.75-1.37-.8.94-1.48,1.68-2.34,2.59-3.4,3.71-7.81,6.85-11.76,10.17-3.59,3.13-7.42,5.94-11.22,8.8.08-.38.16-.74.23-1.05,1.01-3.67,2.13-7.32,3.07-11.02,1.85-7.95.24-16.05-1.07-23.96-.37,6.25-.24,14.7-1.48,19.42-.84,4.14-2.65,7.97-3.66,12.07-1.25,3.78-1.01,5.22-2.46,8.7-.04.12-.08.23-.13.35-1.25,2.16,1.81,4.49,3.38,2.18,2.57-2.13,5.31-4.03,7.93-6.09,3.04-2.44,5.77-5.23,8.48-8.03Z"/>
    <path d="M171.98,277.95c.07-9.29-.61-18.67-2.54-27.77.03,6.75-.51,13.48-.9,20.21-.21,7.88-1.42,16.87-2.96,22.99-.57,1.97-1.39,3.86-1.9,5.84-.67,2.07-1.69,4.02-2.65,5.96-1.14,2.33-1.79,3.56-3.65,6.63-.6.92-1.07,1.92-1.63,2.86-.62.94-1.29,1.84-1.8,2.85-1.43,2.71-2.71,5.12-4.71,8.57-2.02,3.2-3.93,6.53-5.34,10.05-.78,2.03-1.1,4.19-1.35,6.34-.5,2.65-.8,5.34-1.09,8.02-.19,1.27-.06.96-.48,2.35-.09.25-.17.52-.11.79.88,2.52,3.78-.57,4.95-1.4,2.35-1.91,4.47-4.06,6.68-6.11-3.04,1.79-5.44,3.45-8.4,5.09.3-1.1.52-2.23.8-3.33.91-3.62,1.33-5.51,2-8.38,1.21-3.69,2.79-6.29,4.05-8.61,2.55-3.91,5.42-9.44,6.41-11.33,3.72-5.98,6.2-10.17,8.82-15.92.91-1.69,1.4-3.54,1.97-5.36.55-1.59,1.17-3.15,1.52-4.8,1.15-5.11,2.02-10.31,2.31-15.54Z"/>
    <path d="M157.05,339.17c-4.82,8.54-9.7,24.45-3.99,33.34.32.52.66,1.03,1.08,1.47-.41-.82-.64-1.72-.84-2.61-1.31-5.02-.02-10.14.85-15.29.92-5.7,1.61-11.42,2.9-16.91Z"/>
    <path d="M155.86,394.56c.02.25.04.52.07.74.05-.12.06-.27.09-.39.75-3.13,1.53-5.96,1.94-9.12.74-6.39-.62-12.84-2.78-18.84.37,9.02.51,18.33.69,27.6Z"/>
    <path d="M163.32,398.94c-.18-.6-.33-1.21-.47-1.83-.76,5.78-1.08,11.61-.72,17.44.05,1.86.29,3.7.56,5.54.24,1.09.38,2.27,1,3.22-.4-1.63,0-3.36.12-5.01.25-2.71.68-5.41.86-8.13.17-2.62.18-5.25.09-7.87-.58-1.03-1.07-2.14-1.44-3.35Z"/>
    <path d="M178.82,436.24c-1.07-4.88-2.34-8.59-3.75-12.95,0,6.8,1.07,13.57,3.08,20.06.73,1.99,1.02,4.28,2.28,6.01-.24-.65-.38-2.68-.43-3.87-.23-3.1-.57-6.2-1.19-9.25Z"/>
    <path d="M194.22,445.44c1.37,5.06,2.72,10.12,4.22,15.15,1.25,3.86,3.17,9.09,4.45,12.12-.24-5.14-1.18-10.32-2.74-15.24-1.34-4.3-3.54-8.23-5.92-12.02Z"/>
    <path d="M409.84,445.28c-.5,2.58-2.59,9.37-3.39,13.41-.08.54-.14,1.08-.21,1.62.22-.49.43-.98.64-1.48,2.16-4.3,4.63-8.53,5.98-13.23,1.87-7.37,1.93-15.27.29-22.69-.49,7.53-2,14.95-3.31,22.36Z"/>
    <path d="M365.2,476.5c-.88,8.22-.63,16.51.17,24.73.15,1.38.04,2.76-.35,4.09,1.09-1.85,1.22-3.99,1.44-6.07.75-8.31,2.02-19.74,3.34-26.09,3.14-12.77,7.99-25.04,13.32-37.04-.02-.09-.03-.17-.05-.26-8.84,12-15.73,25.78-17.87,40.64Z"/>
    <path d="M336.07,510.03c-.54,2.87-.97,5.73-2.18,8.42,2.22-2.64,3.42-5.93,4.63-9.11,3.77-9.98,5.1-20.66,5.9-31.23-2.58,7.05-4.83,14.25-6.38,21.6-.72,3.43-1.34,6.88-1.98,10.32Z"/>
    <path d="M304.5,515.36c5.6-10.46,6.73-22.6,7.63-34.24-2.33,6.05-4.16,12.3-5.28,18.69-.88,5.17-1.23,10.43-2.35,15.56Z"/>
    <path d="M267.35,530.97c1.31-11.88.71-23.89-1.78-35.58-1.36,11.88-.76,23.9,1.78,35.58Z"/>
    <path d="M166.06,331.29c-4.6,9.11-7.46,19.5-9.19,29.28,3.19-9.72,5.89-19.59,9.19-29.28Z"/>
    <path d="M169.63,389.2c-.21.45-.42.9-.62,1.36.34-.45.69-.91,1.03-1.36,3.31-4.25,6.24-8.79,9.44-13.12,1.51-1.8,3.51-3.69,5.36-5.74-2.35,1.66-4.82,3.21-6.82,5.3-3.6,3.95-6.06,8.79-8.38,13.56Z"/>
    <path d="M204.11,359.14c-.5.65-.19.3.2-.07,2.06-2,3.51-4.52,5.04-6.92,1.55-2.63,3.11-5.36,3.91-8.33,1.33-5.54-1.37-9.85-4.49-14.15-.55-.83-1.79-3.43-1.47-4.63.17-5.97,2.86-11.26,5.7-16.65-3.23,4.22-6.44,8.76-7.33,14.11-.31,1.57-.56,3.23-.16,4.8.92,3.26,3.5,5.78,4.61,8.16,2.14,3.98,1.82,7.28-.06,11.74-1.76,4.07-3.41,8.29-5.95,11.95Z"/>
    <path d="M222.77,355.99c-1.64,3.48-5.38,7.96-8.14,11.67-5.25,7.54-11.2,15.12-13.05,24.32-.54,2.4-.82,4.85-.87,7.31.37-1.86.85-3.7,1.43-5.51,2.76-8.86,7.93-16.04,13.34-23.92,2.8-3.91,6.16-7.48,8.25-11.85,2.05-4.39,2.58-9.84.55-14.33,1.08,4.37.2,8.39-1.5,12.31Z"/>
    <path d="M239.43,372.41c-.59-1.47-1.35-2.88-2.02-4.32.35,1.58.86,3.12,1.18,4.71.2,2.4.27,4.12.23,6.66-.02,4.73-.85,8.39-3.3,12.38-.58,1.06-1.39,1.96-2.11,2.91.68-.58,1.39-1.13,2.03-1.76,3.57-3.63,5.49-8.53,5.07-13.63-.11-2.34-.46-4.68-1.07-6.94Z"/>
    <path d="M257.78,391.74c-.07,2.08-.79,5.11-1.08,6.67-1.49,6.54-3.73,12.94-6.47,19.06-.59,1.13-1.24,2.24-1.81,3.38.67-.96,1.38-1.9,2.04-2.86,3.23-5.11,5-11.03,6.61-16.82.73-2.94,1.37-5.93,1.43-8.97-.16-2.19-.74-4.32-1.19-6.46.15,1.98.42,4.29.47,6Z"/>
    <path d="M285,388.07c-.55-.27-1.18-.32-1.78-.46,2.3.45,4.03,3.21,5.03,4.67,3.12,4.71,3.06,9.97,2.07,15.53-.54,3.67-2.04,8.41-3.77,11.48-2.25,4.19-4.47,8.4-7.02,12.41,2.79-3.19,5.39-7.2,7.46-11.1,2.33-4.11,3.72-8.64,4.43-13.3.87-5.16.93-11.03-2.44-15.34-1.1-1.5-2.42-2.86-3.98-3.89Z"/>
    <path d="M370.68,428.44c.07.37.14.73.22,1.1-.02-.39-.04-.78-.07-1.18-.4-6.1-1.15-12.22-2.7-18.15-.97-3.26-2.41-6.35-3.79-9.46,1.1,3.91,2.38,7.33,3.25,11.31,1.13,5.44,1.97,10.93,3.1,16.37Z"/>
    <path d="M217.01,471.27c-1.76,10.23-4.47,20.24-7.26,30.5-.27.93-.55,1.85-.8,2.78.36-.83.73-1.66,1.09-2.49,2.84-6.72,4.35-13.93,6.05-21,.95-4.47,1.95-8.94,2.47-13.49.22-3.24.14-6.5.08-9.75-.58,4.48-.77,9-1.62,13.44Z"/>
    <path d="M243.92,502.3c-.1,3.08-.06,6.16-.03,9.25,0,.44.01.88.02,1.32.06-.41.12-.83.18-1.24.43-3.12.72-6.25.77-9.4.1-3.14-.25-6.32-1.82-9.09,1.11,3.1,1.04,5.95.88,9.17Z"/>
    <path d="M268.1,465.84c-3.66,5.86-5.81,12.64-6.83,19.45-.18,1.18-.32,2.37-.41,3.57.41-1.38.88-2.73,1.35-4.09,2.2-6.11,4.6-11.12,7.59-16.11,4.88-7.33,10.68-13.95,16.8-20.2-7.08,4.69-13.64,10.38-18.5,17.39Z"/>
    <path d="M315.57,384.98c-2.41-1.64-5.02-2.98-7.94-3.38,2.49.88,4.64,2.38,6.58,4.16,3.1,2.65,6.66,6.67,8.32,10.15,2.37,4.96,1.69,10.01-.05,15.66-1.67,5.91-3.84,11.68-5.1,17.7-1.33,5.79-1.77,11.76-1.48,17.69.93-5.81,2.96-14.73,5.35-21.33,1.26-3.91,2.51-7.82,3.68-11.76,2.15-6.62,3.65-14.49-.68-20.57-2.25-3.36-5.33-6.11-8.7-8.32Z"/>
    <path d="M399.63,385.36c1.01,1.73,1.26,3.72,1.64,5.65.55,2.97.93,5.97,1.32,8.96.68,5.08,1.69,10.1,2.18,15.21.16,1.92.24-1.73.33-2.39.33-7.06-.42-14.25-2.48-21.03-.75-2.23-1.4-4.6-2.99-6.39Z"/>
    <path d="M410.72,376.36c-.89-1.41-1.83-2.8-2.83-4.14,2.57,5.34,5.52,10.76,8.51,15.74-.61-1.71-1.32-3.38-2.08-5.02-1.45-1.99-2.6-4.23-3.59-6.59Z"/>
    <path d="M386.9,413.32c-.7-3.23-1.71-6.39-2.66-9.56,2.29,13.56,5.12,26.98,2.48,40.55-.21.95-.52,1.88-.78,2.83.33-.76.68-1.5.98-2.27,2.66-7.25,1.91-15.12,1.18-22.65-.34-2.97-.7-5.94-1.2-8.89Z"/>
    <path d="M332.22,457.36c.24-.33.47-.65.71-.98,3.53-4.74,6.46-9.88,9.16-15.12,2.56-4.59,4.32-9.53,5.72-14.59-4.24,10.2-9.31,19.26-14.66,28.95-.31.57-.64,1.19-.93,1.74Z"/>
    <path d="M296.3,161.69c-1.63,4.01-1.98,8.42-2.56,12.67,2.66-6.32,4.7-12.71,8.77-14.67,1.73-.96,2.73-1.98,5.46-2.83,1.02-.38,2.19-.77,3.42-1.13-.19.11-.36.23-.54.35-1.19.5-2.31,1.1-3.15,2.09-2.36,3.06-1.98,7.5-.49,10.87,1.32,2.91,4.29,4.84,7.45,5.09.41.04.81.04,1.2.01-1.88.37-3.85.68-5.64.9-2.77.32-9.85-3.16-14.03-5.57,4.04,4.15,8.91,9.15,15.13,8.94,4.12-.39,8.32-1.47,11.78-3.8,1.55-1.02,2.47-2.36,3.71-3.53,1.1-1.15,1.96-2.54,2.47-4.05-.21.32-.75.89-.88,1.03-1.7,1.78-3.22,2.29-5.23,3.74-.93.58-2.32,1.1-3.94,1.55.73-.27,1.44-.61,2.12-1,.21-.1.41-.21.61-.33.9-.55,1.72-1.13,2.44-1.75,1.1-.74,2.16-1.55,2.94-2.63.9-1.35,1.35-2.94,1.67-4.52.22-.92.29-1.89.17-2.91-.03-.31-.1-.62-.19-.93,1.54,1.79,3.02,3.89,4.22,5.64-1.22-4.01-2.89-7.44-5.04-10.26-4.77-5.32-12.86-5.15-19.13-2.94,1.38-.45-1.87.57-2.41.87-1.88.62-3.48,1.72-5.02,2.94-2.24,1.6-4.21,3.61-5.32,6.16ZM314.35,161.53c.06-.21.12-.42.22-.63.5-.51,1.03-.98,1.61-1.38.79-.11,1.75-.1,2.92.06,0,0,0,0,.01,0,.22.05.63.16.88.25.28.09.55.21.81.33,0,0,0,0,0,0,.24.14.46.31.68.48.13.14.33.36.5.57.07.13.14.27.2.41.04.16.06.32.07.49,0,.02,0,.03,0,.05,0,.68,0,1.36-.06,2.04-.03.09-.07.18-.11.26-.13.22-.26.42-.42.62-.05.03-.1.06-.15.1-2.14,1.21-1.93,1.24-4.03,1.47-.28,0-.7,0-.94-.04-.36-.02-1.08-.15-1.2-.17,0,0,0,0,0,0-.11-.22-.21-.45-.3-.68-.11-.45-.36-1.41-.41-1.74-.08-.3-.18-.59-.27-.88.05.14.07.22.01.03-.07-.28-.11-.55-.13-.72.02-.31.07-.7.11-.92Z"/>
    <path d="M408.63,155.93c-1.37.43-2.92.71-5.1.54-2.28-.27-4.55-.98-6.83-1.76,2.71,2.19,5.92,4.14,9.5,4.2,3.48.1,6.9-1.52,9.08-4.23.4-.43.99-1.75,1.05-1.88.03-.08.76-1.4.81-1.95.08-.29.16-.58.24-.87.11-.26.22-.52.31-.78,1.31-2.95.38-6.54-1.58-8.99-1-1.19-2.31-2.03-3.75-2.55-1-.53-2.14-.79-3.31-.76-2.95-.2-5.9.73-8.5,2.05-3.43,1.64-4.31,4.02-4.1,7.15-.01.02-.02.04-.03.06-.07-.39-.13-.78-.19-1.18-.17-.66-.29-1.38-.65-1.96-.03-.03-.07-.08-.11-.05.34,1.16-.11,2.82.1,4.1.02.23.05.46.1.68-.08.18-.16.36-.24.55-.76,2.01-.92,4.2-.83,6.33.51-1.66,1.16-3.27,1.75-4.9.33.72.72,1.41,1.11,2.09-.19-1.15-.41-2.3-.63-3.45.32-.95.61-1.91.83-2.88.09-.45.13-.91.18-1.36.14-.32.3-.63.47-.91.44-.55,1.03-.96,1.71-1.31-.43.86-.7,1.8-.77,2.71.06,4.32,2.48,9.11,6.8,10.47.52.16,1.05.24,1.59.34-.08-.02-.18-.04-.27-.06.11.02.22.05.33.07.02,0,.03,0,.05,0,.16.03.33.06.49.08.37.12.74.17,1.13.15-.16.06-.31.12-.47.17-.07.02-.16.05-.25.07ZM409.19,149.03c-1.37-.39-1.86-1.05-2.27-1.68-.6-1.19-.49-1.51-.46-2.96-.04-.75.04-1.39.28-1.98.44-.21.69-.22,1.66-.36.02,0,.02,0,.04,0,0,0,0,0,.01,0,2.16.18,1.13.02,2.77.53.04.01.07.03.11.05.15.1.4.27.62.44-.09-.08-.06-.06.03.02.12.1.23.19.3.28-.09-.08-.16-.14-.22-.19.1.1.23.23.35.38.78.84,1.2,2.37,1.16,3.48-.12.43-.22.78-.31,1.06-.27.05-.53.15-.76.28-.14.08-.28.14-.43.19,0,0,0,0,0,0-.11.03-.95.27-1.25.33-.25.08-.91.15-1.06.17-.21,0-.44-.03-.59-.05Z"/>
    <path d="M407.73,155.45s0,0,0,0c-.01,0-.02,0-.04,0,.01,0,.03,0,.04,0Z"/>
    <path d="M407.62,155.43s.05.01.08.01c0,0,0,0-.01,0-.02,0-.04,0-.06-.01Z"/>
    <path d="M411.99,143.09s-.02-.02-.03-.02c.03.03.06.06.12.11-.03-.03-.06-.06-.08-.08Z"/>
    <path d="M437.96,362.38c-1.67-4.76-4.06-9.22-6.15-13.8-1.98-3.91-4.34-7.61-6.5-11.42-2.54-4.19-5.1-8.4-8.41-12.04-3.43-3.56-7.43-6.78-12.1-8.54,10.43,7.2,13.76,18.27,19.76,29.17,3.23,5.57,5.87,11.47,8.39,17.39,1.34,3.84,2.56,7.71,3.92,11.54,1.5,5.11,3.23,10.2,4.03,15.47.7,5.66.46,11.65-.27,18.7-.72,7.88-3.73,14.75-4.12,23.44,0,.3-.01.6-.02.9.13-.5.25-1,.38-1.5,1.71-6,4.79-11.5,6.67-17.44,2.66-8.6,3.51-17.84,2.01-26.74-1.85-8.57-4.8-16.84-7.59-25.13Z"/>
    <path d="M458.66,199.52c-.94-7.42-2.08-14.81-2.49-22.28-.85-13.15-2.36-26.42-6.58-38.96-2.02-5.23-4.13-10.48-7.22-15.18-3.73-5.6-8.45-10.45-13.02-15.36,3.74,6.36,7.78,12.56,11.05,19.18,1.86,3.85,2.87,7.12,4.31,11.46,3.11,9.69,3.96,17.83,5.86,29.62,1.19,9.08,2.2,18.21,4.57,27.08,1.76,6.91,3.06,11.64,3.83,18.71.11.74.28,1.47.35,2.21,0-.07,0-.14.01-.21.04-5.44.08-10.88-.68-16.27Z"/>
    <path d="M423.53,262.56c4.28-.3,8.74-.22,12.85,1.15,1.97.74,3.5,2.28,5.37,3.19,1.69.58,4.19,1.49,4.44-1.13.25-1.52-.36-3.02-.89-4.41-.59-1.49-1.19-2.97-1.89-4.41-.79-1.59-1.95-2.97-3.15-4.27.73,1.55,1.46,3.1,2.01,4.73.51,1.76,1.03,3.85,1.45,5.64-1.07-.15-4.39-2.7-6.38-3.24-4.69-1.13-9.67.54-13.8,2.75Z"/>
    <path d="M451.5,233.12c-.09,4.18-.57,8.44-.8,12.92-.04.27-.1.55-.27.78.28-.17.38-.52.5-.81,1.22-4.47,2.5-9.01,2.7-13.67.13-6.75-1-13.76-3.93-19.87,1.42,7.13,1.65,13.62,1.8,20.66Z"/>
    <path d="M449.73,257.92c-.87-7.18-2.48-14.43-6.49-20.57,1.91,6.68,4.04,15.06,6.49,20.57Z"/>
    <path d="M440.01,244.14c.91,1.91,2.04,3.73,3.59,5.18-.91-1.91-2.04-3.73-3.59-5.18Z"/>
  </g>
</svg>