<?xml version="1.0" encoding="UTF-8"?>
<svg id="Ice_Cream" data-name="Ice Cream" xmlns="http://www.w3.org/2000/svg" viewBox="0 0 400 400">
  <defs>
    <style>
      .cls-1 {
        stroke: #b77e52;
      }

      .cls-1, .cls-2 {
        fill: none;
        stroke-miterlimit: 10;
      }

      .cls-3 {
        fill: #c5905c;
      }

      .cls-4 {
        fill: #efd9c2;
      }

      .cls-5 {
        fill: #6d3f19;
      }

      .cls-2 {
        opacity: .9;
        stroke: #fff;
        stroke-linecap: round;
        stroke-width: 5px;
      }
    </style>
  </defs>
  <circle class="cls-4" cx="200" cy="200" r="121.79"/>
  <polygon id="cone" class="cls-3" points="200 293.28 158.93 176.48 241.07 176.48 200 293.28"/>
  <g id="cone_s_lines" data-name="cone&amp;apos;s lines">
    <path class="cls-1" d="M172.36,212.75c2.69-2.99,5.6-6.62,8.45-10.92,2.57-3.88,4.62-7.58,6.24-10.92"/>
    <path class="cls-1" d="M183.95,235.97c5.52-6.54,12.31-15.18,19.42-25.8,6.76-10.09,11.95-19.2,15.8-26.53"/>
    <path class="cls-1" d="M193.74,256.51c6.67-7.76,13.75-16.85,20.74-27.34,6.41-9.63,11.7-18.85,16.06-27.34"/>
    <path class="cls-1" d="M219.17,232.75c-4.58-5.5-9.38-11.74-14.18-18.74-5.75-8.38-10.49-16.4-14.4-23.72"/>
    <path class="cls-1" d="M209.86,256.95c-7.55-8.47-15.62-18.8-23.31-31.15-7.36-11.82-12.89-23.13-17.09-33.27"/>
    <path class="cls-1" d="M229.43,206.69c-3.21-2.47-7.7-6.5-11.74-12.5-4.04-6-6.08-11.68-7.16-15.58"/>
  </g>
  <path id="ice_cream" data-name="ice cream" class="cls-5" d="M241.55,156.58c.4-2.34.62-4.74.62-7.19,0-23.57-19.1-42.67-42.67-42.67s-42.67,19.1-42.67,42.67c0,3.24.37,6.39,1.06,9.42-4,2.65-6.64,7.19-6.64,12.35,0,8.18,6.63,14.81,14.81,14.81,2.94,0,5.67-.87,7.98-2.35,7.11,5.3,15.92,8.43,25.47,8.43s18.15-3.07,25.22-8.26c2.36,1.37,5.1,2.17,8.02,2.17,8.85,0,16.02-7.17,16.02-16.02,0-5.59-2.87-10.51-7.21-13.37Z"/>
  <path id="shadow" class="cls-2" d="M170.54,141.07c.13-2.19.84-9.47,6.62-15.92,5.26-5.87,11.61-7.57,13.85-8.06"/>
</svg>