<?xml version="1.0" encoding="UTF-8"?>
<svg xmlns="http://www.w3.org/2000/svg" xmlns:xlink="http://www.w3.org/1999/xlink" viewBox="0 0 400 400">
  <defs>
    <style>
      .cls-1, .cls-2 {
        fill: none;
      }

      .cls-2, .cls-3, .cls-4 {
        stroke: #231f20;
        stroke-miterlimit: 10;
      }

      .cls-5 {
        fill: #4b3c52;
      }

      .cls-6 {
        fill: #c49993;
      }

      .cls-7, .cls-3 {
        fill: #231f20;
      }

      .cls-8 {
        isolation: isolate;
      }

      .cls-9 {
        fill: #a49232;
      }

      .cls-10 {
        fill: url(#_6_dpi_30_);
        mix-blend-mode: lighten;
        opacity: .5;
      }

      .cls-11 {
        fill: #9c3049;
      }

      .cls-12 {
        fill: #79d1f0;
      }
    </style>
    <pattern id="_6_dpi_30_" data-name="6 dpi 30%" x="0" y="0" width="48" height="48" patternTransform="translate(-3219.85 -2676.92) scale(.66)" patternUnits="userSpaceOnUse" viewBox="0 0 48 48">
      <g>
        <rect class="cls-1" y="0" width="48" height="48"/>
        <g>
          <circle class="cls-7" cx="24" cy="48" r="3.6"/>
          <circle class="cls-7" cx="48" cy="48" r="3.6"/>
          <circle class="cls-7" cx="24" cy="24" r="3.6"/>
          <circle class="cls-7" cx="48" cy="24" r="3.6"/>
          <circle class="cls-7" cx="36" cy="36" r="3.6"/>
          <circle class="cls-7" cx="12" cy="36" r="3.6"/>
          <circle class="cls-7" cx="36" cy="12" r="3.6"/>
          <circle class="cls-7" cx="12" cy="12" r="3.6"/>
        </g>
        <g>
          <circle class="cls-7" cy="48" r="3.6"/>
          <circle class="cls-7" cy="24" r="3.6"/>
        </g>
        <g>
          <circle class="cls-7" cx="24" cy="0" r="3.6"/>
          <circle class="cls-7" cx="48" cy="0" r="3.6"/>
        </g>
        <circle class="cls-7" cy="0" r="3.6"/>
      </g>
    </pattern>
  </defs>
  <g class="cls-8">
    <g id="Layer_1" data-name="Layer 1">
      <rect class="cls-12" x=".77" y=".77" width="398.46" height="398.46"/>
      <rect class="cls-10" x=".77" y=".77" width="398.46" height="398.46"/>
      <path class="cls-2" d="M200,31.75s23.82,9.58,35.32,21.09c11.5,11.5,30.03,37.06,35.14,38.98,5.11,1.92,4.11,22.8,8.95,28.11l3.36,3.66c2.42,2.64,5.38,4.72,8.69,6.11l44.23,18.53s8.35,7.84,8.35,13.59-5.46,10.72-7.12,16.26c-1.86,6.21-1.67,8.94-1.28,13.42,0,0,6.72,9.81,10.22,11.5,5.8,2.8,1.56,15.12.31,18.38-.17.45.02.95.44,1.18,2.29,1.22,9.05,5.29,10.11,11.12,1.28,7.03-11.5,7.67-6.39,19.17,5.11,11.5,12.78,10.86,12.14,26.84-.64,15.97-15.97,19.81-15.97,19.81,0,0-63.26,12.14-69.65,21.09-6.39,8.95-10.86,9.58-10.86,9.58H53.21V20.89l137.38-4.47,9.41,15.34Z"/>
      <g>
        <path class="cls-6" d="M200,31.75s23.82,9.58,35.32,21.09c11.5,11.5,30.03,37.06,35.14,38.98,5.11,1.92,4.11,22.8,8.95,28.11l3.36,3.66c2.42,2.64,5.38,4.72,8.69,6.11l44.23,18.53s8.35,7.84,8.35,13.59-5.46,10.72-7.12,16.26c-1.86,6.21-1.67,8.94-1.28,13.42,0,0,6.72,9.81,10.22,11.5,5.8,2.8,1.56,15.12.31,18.38-.17.45.02.95.44,1.18,2.29,1.22,9.05,5.29,10.11,11.12,1.28,7.03-11.5,7.67-6.39,19.17,5.11,11.5,12.78,10.86,12.14,26.84-.64,15.97-15.97,19.81-15.97,19.81,0,0-56.26,14.09-69.65,21.09-9.74,5.09-42.45,78.67-42.45,78.67H51.6l1.61-378.34,137.38-4.47,9.41,15.34Z"/>
        <path class="cls-7" d="M200.32,31.37s-.08-.07-.05-.06l.09.03s.18.05.18.05c0,0,.36.1.36.1.26.08,1.79.55,2.12.66,10.35,3.51,20.33,8.15,29.17,14.69,9.34,7.38,16.46,17.34,24.18,26.2,2.51,2.99,5,5.98,7.55,8.88,2.35,2.52,4.62,5.47,7.47,7.34,1.39.52,2.75,1.95,3.36,3.26,1.49,2.97,1.99,6.18,2.56,9.26.66,3.91,1.15,7.78,2.01,11.35.6,2.26,1.05,4.03,2.42,5.44,0,0,.99,1.08.99,1.08,2.94,3.5,6.3,6.49,10.66,8.11,14.37,6.17,28.72,12.4,43.01,18.75,0,0,.34.15.34.15,1.59,1.56,3.01,3.15,4.34,4.88,4.8,6.13,6.31,11.22,1.97,18.17-1.51,2.63-3.22,4.91-4.36,7.61-1.78,4.53-2.36,9.19-1.82,14.05,0,.04-.21-.59-.21-.58,2.96,3.63,5.9,7.69,9.73,10.34,5.18,2.19,4.98,8.78,4.21,13.31-.45,2.66-1.13,5.22-2.02,7.76,0,0-.02.06-.02.06.07-.18.11-.38.11-.58,0-.57-.32-1.13-.83-1.4,0,0,.13.07.13.07,5.31,2.82,11.13,7.27,11.82,13.91.41,3.14-2.32,6.59-4.12,8.17-2.99,2.75-4.2,4.88-2.4,8.67,2.26,5.75,7.43,9.32,10.37,14.81,1.76,3.34,2.38,7.03,2.54,10.37.15,3.43-.07,7.01-1.14,10.37-2.6,8.64-10.62,15.09-19.22,16.96,0,0-4.45,1.11-4.45,1.11-14.75,3.67-29.97,6.71-44.65,10.56-6.57,1.86-13.21,3.64-19.27,6.59-4,3.04-6.37,8.03-8.98,12.3-11.74,21.13-19.38,45.42-33.61,65.25-.07.99-182.77-.06-183.26.31-1.54.08,1.67-378.38,1.11-379.33.12-.24,137.62-4.31,137.86-4.49,0,0,.29,0,.29,0,0,0,.15.25.15.25,0,0,9.31,15.21,9.31,15.21h0ZM199.68,32.13s-9.51-15.46-9.51-15.46c2.15.3-137.28,4.73-136.94,4.71,0,0,.48-.5.48-.5,0,0-1.61,378.34-1.61,378.34-3.44-1.02,183.2-.32,182.3-.5,0,0-.46.3-.46.3,0,0,0-.01,0-.01,2.6-12.29,7.89-23.41,13.38-34.41,5.58-10.97,11.81-21.61,18.37-32.09,2.55-3.96,5.02-7.95,8.27-11.45,1.02-1.19,2.79-2.13,4.26-2.77,5.7-2.54,11.49-4.59,17.33-6.7,14.5-5.2,29.03-10.26,43.9-14.25,2.29-.67,6.15-1.43,8.24-2.37,5.95-2.47,10.47-7.83,10.97-14.32.29-3.71.19-8.32-1.44-11.5-.84-1.92-3.62-5.03-5.01-6.77-6.2-7.96-10.07-17.02-.88-24.45,1.41-1.43,2.36-1.98,2.48-3.41-.11-1.57-.91-3.11-2.01-4.47-1.61-2-3.89-3.78-6.3-5.18-1.5-.73-2.31-2.56-1.8-4.16,1.62-4.44,4.05-10.17,2.45-14.78-.25-.55-.61-.95-1.1-1.24-.62-.33-1.25-.81-1.75-1.25-3.56-3.33-6.08-7.28-8.68-11.28,0,0-.2-.31-.2-.31,0,0-.01-.28-.01-.28-.82-6.08.02-12.74,2.98-18.18,1.78-3.37,4.28-6.58,4.92-10.24.71-5.04-4.54-10.18-7.88-13.61,0,0,.56.36.54.35-14.55-5.73-29.06-11.58-43.53-17.5-4.95-1.77-9.2-5.21-12.58-9.21,0,0-1-1.08-1-1.08l-.25-.27c-1.97-2.09-2.83-5.12-3.44-7.42-1-4.03-1.51-7.93-2.18-11.72-.61-2.88-.87-5.96-2.44-8.31-.05-.05-.09-.09-.09-.08,0-.01,0,.01.02,0,0,0,.13.05-.18-.08-3.94-2.11-6.48-5.62-9.43-8.76-7.71-8.83-14.85-18.24-22.62-26.9-2.55-2.84-5.09-5.5-8.08-7.89-9-7.22-19.43-12.9-29.49-18.57h0Z"/>
      </g>
      <path class="cls-3" d="M265.38,108.74l-3.6-13.84c-.1-.39-.39-.71-.77-.85-2.98-1.06-16.13-5.56-22.17-4.99-6.5.62-13.89,5.66-14.59,6.15-.04.03-.06.05-.09.09-.67,1-10.62,15.74-12.54,22.29-.06.21.12.4.33.37l9.09-1.52c.14-.02.26-.09.34-.2,1.16-1.45,9.69-11.98,14.84-12.71,5.53-.79,18.04,3.47,20.5,5.07l7.29,1.56c.84.18,1.57-.59,1.36-1.42Z"/>
      <path class="cls-4" d="M237.47,148.73l20.76-6.08c.35-.1.72-.12,1.08-.06,1.45.23,9.19,1.11,12.57-4.55.07-.12.25-.06.23.07-.27,2.09-4.93,8.43-9.7,13.25-.15.15-.33.26-.53.33-2.21.7-16.72,4.9-23.82,4.14-.34-.04-.59-.33-.59-.67v-6.43Z"/>
      <g>
        <path class="cls-9" d="M228.36,155.75s5.91-32.7,14.31-33.05c10.67-.44,14.57,11.19,16.13,19.78l-30.45,13.27Z"/>
        <path class="cls-7" d="M228.05,156.15c-.26-.25-.16-.67-.11-.99.03-.29.19-1.21.23-1.52.77-4.72,1.77-9.42,3.07-14.03,1.58-5.37,3.17-10.72,6.68-15.3,1.15-1.4,2.75-2.7,4.65-2.83.4-.02,1.27.05,1.68.05,10.5.75,13.94,12.44,15.16,21.13-9.29,6.5-20.85,9.86-31.36,13.49h0ZM228.67,155.36c9.68-4.9,19.25-11.07,29.94-13.34,0,0-.29.56-.29.55-1.97-7.51-5.19-17.91-14.24-18.6,0,0-.93-.02-.93-.02-2.6-.1-4.24,3.04-5.46,5.12-4.16,8.06-6.35,17.03-8.6,25.79,0,0-.12.49-.12.49l-.06.25s-.03.12-.03.12v.03c.03-.15-.09-.34-.21-.39h0Z"/>
      </g>
      <path class="cls-4" d="M318.38,180.55s2.26-9.04,5.87-9.49c3.62-.45,9.85-2.72,9.49,0-.71,5.37-16.3,11.62-15.36,9.49Z"/>
      <g>
        <path class="cls-11" d="M322.19,234.59c1.2-.31,2.31-.91,3.22-1.76,3.64-3.41,13.07-4.56,15.7-4.82,2.03-.21,4.73-.34,5.83-.12,1.51-4.23,4.25-22.32-1.08-24.9-.16-.08-.33-.18-.51-.29h0s-21.71,29.98-25.04,32.31c-.03.02,0,.06.03.05l1.86-.47Z"/>
        <path class="cls-7" d="M321.98,233.76c1.87-.35,3.09-1.89,4.67-2.79,2.25-1.22,4.73-1.93,7.15-2.46,4.38-.83,8.76-1.57,13.23-1.11,0,0-.57.32-.57.32.44-2.09.66-4.3.92-6.46.28-4.38,1.99-15.78-2.3-18.13,0,0,.3.08.3.08-.02,0,.37-.2.37-.2-2,3.01-6.98,10.53-8.93,13.42-4.99,6.39-9.74,13-15.41,18.82,0,0-.58.5-.58.5.79-.56.15-1.78-.7-1.54.33-.07,1.49-.36,1.86-.44h0ZM322.41,235.42c-.3.07-1.53.42-1.84.5-.95.27-1.62-1.06-.77-1.65,0,0,.42-.4.42-.4,6.52-7.18,11.68-15.73,17.99-23.11,0,0,6.74-8.35,6.74-8.35l.16-.2s.21,0,.21,0c6.31,1.73,4.87,14.36,3.98,19.34-.44,2.35-1.03,4.7-2.07,6.94,0,0-.39-.09-.39-.09-4.21-.29-8.62.54-12.73,1.45-2.34.58-4.63,1.31-6.67,2.49-.35.22-.91.6-1.21.88-1.08,1.02-2.36,1.85-3.82,2.22h0Z"/>
      </g>
      <g>
        <path class="cls-11" d="M356.8,234.94c.02-.4,0-.82-.08-1.27-.88-4.86-5.73-8.49-8.64-10.27-1.91-.44-4.07-.81-5.88-.78-4.23.06-20.47,11.46-21.78,12.39-.04.02-.02.08.02.09l5.14,1.42c2.47.71,5.09.7,7.57.01,7.16-1.98,18.63-1.79,23.66-1.59Z"/>
        <path class="cls-7" d="M356.47,234.57c-.07.04-.14.12-.17.2-.03.13-.02.02-.03.03l-.03-.11c-1.46-4.5-5.11-7.64-8.42-10.88,0,0,.15.06.15.06-2.22.28-4.29-.11-6.4.17-3.05.94-5.83,2.64-8.68,4.29-3.49,2.07-7.26,4.58-10.65,6.87,0,0-.87.6-.87.6l-.22.15-.03.02s-.07.05.05-.04c.09-.07.19-.17.26-.29.45-.7-.02-1.57-.67-1.73.02,0,.08.02.1.03,0,0,.51.14.51.14,1.03.29,3.06.89,4.08,1.19,4.73,1.76,9.47-.66,14.25-.87,4.99-.43,10-.37,14.98-.11.42.03,1.36.02,1.78.27h0ZM357.14,235.31c-.71.16-1.73.12-2.47.13-4.91.04-9.89.21-14.75.84-2.86.27-5.5,1.04-8.3,1.66-2.22.39-4.63.2-6.78-.42-1.26-.34-3.37-.87-4.63-1.22-1.2-.28-1.42-1.82-.23-2.46.52-.36,3.78-2.63,4.4-3.04,4.84-3.19,9.49-6.39,14.88-8.75,1.07-.46,2.47-.86,3.62-.75,1.95.11,3.79.71,5.47,1.68,2.5.87,4.73,2.38,6.5,4.37,1.73,1.93,3.09,4.71,2.53,7.37-.05.16-.08.47-.24.6h0Z"/>
      </g>
      <path class="cls-7" d="M115.14,223.1c-7.91-1.73-15.63-4.27-22.91-7.81-4.99-3.03-10.84-.82-15.18,2.38-3.47,2.35-7.33,6.55-9.49,9.24-2.72,6.2-3.86,13.45-2.22,20.01.83,3.27,2.4,6.31,4.57,8.88,1.8,2.23,5.47,5.1,7.62,7.14,15.25,13.71,32.82,27.92,54.21,28.39,12.93.57,24.1-7.98,28.46-19.85.11-.58.14-1.11-.04-1.76-1.64-6.43-5.27-12.47-11.25-16.11,0,0,.41-.91.41-.91,3.53,1.11,6.74,3.33,9.13,6.18,2.45,2.86,4.2,6.27,5.26,9.88.33,1.04.43,2.34.18,3.49-.78,2.85-2.2,5.31-3.72,7.8-7.76,12.23-19.96,16.75-34.03,14.56-19.96-2.94-36.14-16.41-50.42-29.68-2.26-2.24-5.74-4.99-7.75-7.52-2.36-2.88-4.06-6.32-4.92-9.93-1.65-7.29-.35-14.83,2.74-21.55,2.98-3.7,6.33-7,10.22-9.72,3.88-2.67,8.73-4.85,13.56-3.62,2.35.66,4.2,1.97,6.38,2.9,6.21,2.84,12.74,5.08,19.38,6.65,0,0-.2.98-.2.98h0Z"/>
      <path class="cls-4" d="M143.66,257.93c-1.82-1.55-4.79-3.68-8.15-4.48-1.81-.43-3.31-1.67-4.03-3.39-1.32-3.16-4.27-7.37-10.35-5.45,0,0-5.4,7.36-2.94,12.76,1.89,4.17,14.12,6,19.6,6.61,1.66.19,3.32-.35,4.57-1.46l1.35-1.21c1.02-.91,1-2.5-.04-3.39Z"/>
      <g>
        <path class="cls-5" d="M207.86,35.26s8.69-.4,10.32-5.65c.3-.97.1-2.03-.48-2.86-2.92-4.14-13.82-19.05-21.29-21.54-8.33-2.78-31.96-4.31-33.93-4.43-.09,0-.17,0-.26,0h-36.58c-27.1,0-54.02,5.13-79.02,15.59-.46.19-.91.38-1.37.58C18.28,28.46.77,54.93.77,84.25v314.99h161.58s-27.44-78.64-44.81-83.28c-17.37-4.64-45.98-56.62-45.98-56.62,0,0-27.16-66.61,51.1-29.51,0,0,16.93-8.95,26.79-19.97,9.66-10.8,13.2-9.34,16.61-23.49.14-.56.11-1.15-.08-1.69-3.29-9.8-34.02-103.37-14.79-121.5,16.37-15.43,38.09-26.42,45.87-30.09,1.84-.87,3.96-.88,5.81-.06l4.98,2.22Z"/>
        <path class="cls-7" d="M207.95,34.76c3.32-.54,7.65-1.55,9.14-4.87.42-.93.36-1.68-.12-2.46,0,0-.66-.89-.66-.89-2.33-3.05-4.8-6.15-7.34-9.02-3.99-4.26-8.09-9.34-13.79-11.12-8.92-2.22-18.35-2.79-27.54-3.55-1.64-.09-5.31-.41-6.89-.33-22,.43-45.82-.76-67.51,2.99-15.26,2.46-30.24,6.63-44.53,12.49-8.53,3.33-16.34,8.12-23.02,14.36C9.52,47.26,1.93,67.96,2.89,89.77c.08,3.57-.29,78.79-.24,84.4-.73,71.7.14,155.57-1.87,224.56-.19.07,163.91-.83,161.11.66-2.6-6.58-5.24-13.15-8.02-19.66-6.92-16.17-14.06-32.39-23.33-47.35-1.86-2.95-3.83-5.82-6.01-8.42-2.31-2.73-5.1-5.59-8.56-6.34-16.51-6.37-37.32-41.51-46.4-57.19-11.47-30.39-3.23-52.29,32.37-41.06,7.49,2.28,14.61,5.37,21.56,8.73l-1.71.04c10.05-6.01,19.9-12.97,27.6-21.88,2.66-2.87,6.06-5.71,8.64-8.35,2.1-2.11,3.45-4.84,4.41-7.69.37-1.11.78-2.57,1.07-3.68,0,0,.21-.78.21-.78.01-.06.02-.13.01-.2,0,0-2.28-7.31-2.28-7.31-6.64-22.08-29.7-102.28-8.73-116.91,12.13-10.59,25.93-19.02,40.25-26.25,7.39-3.92,7.31-3.09,15.02-.33h0ZM207.77,35.75c-3.47-1.83-7.3-4.75-11.23-2.4-6.02,2.9-11.91,6.09-17.64,9.53-9.14,5.52-17.91,11.75-25.74,19-2.02,1.75-3.74,3.67-4.76,6.15-8.27,20.36,4.53,64.41,10.44,85.89,2.55,8.72,5.43,18.07,8.32,26.71.34,1.13,1.11,3,1.35,4.17.19.98,0,2.02-.27,2.96-2.94,12.52-7.1,13.63-15.25,21.96-8.25,9.26-18.52,16.18-29.44,21.81,0,0-.82.45-.82.45,0,0-.9-.41-.9-.41-14.99-6.64-52.27-23.25-52.59,5.43-.22,6.89,2.27,15.81,4.3,21.25,6.88,12.22,14.36,24.26,22.76,35.46,5.31,6.83,10.7,13.71,17.85,18.45,1.35.92,2.84,1.49,4.37,1.97,3.96,1.46,6.5,4.31,9.04,7.32,8.92,11.48,14.67,24.58,20.4,37.72,5.55,13.09,10.49,26.4,14.84,39.92,0,0,.23.66.23.66h-.7s-161.58,0-161.58,0c0,0-.5,0-.5,0,0,0,0-.5,0-.5-.9-100.09-1.36-209.05-1.62-309.46C-2.99,60.04,11.75,31.89,38.24,17.75,66.66,3.75,98.76-1.88,130.29-1.23c7.5.07,23.13.17,30.48.23,1.76-.08,5.39.34,7.15.45,6.25.55,12.5,1.19,18.74,2.14,3.92.69,8.06,1.17,11.81,2.88,2.21,1.16,4.15,2.77,5.94,4.43,5.24,4.97,9.53,10.61,13.55,16.47,2.09,2.46,1.46,5.38-.86,7.38-2.65,2.2-6.02,2.89-9.33,2.99h0Z"/>
      </g>
      <path class="cls-7" d="M134.66,31.49c-13.61,27.18-26.4,59.14-21.56,89.97.79,4.37,2.01,8.67,3.59,12.92l-.89.45c-2.46-3.9-4.31-8.21-5.65-12.69-6.26-22.65.5-46.63,9.93-67.42,3.89-8.31,8.35-16.35,13.74-23.79,0,0,.84.54.84.54h0Z"/>
      <path class="cls-7" d="M131.49,142.46c-.42,10.85-4.54,56.11-13.77,60.71,0,0-.37-.93-.37-.93,5.72-3.56,9.39-36.26,10.88-44.41,0,0,2.26-15.46,2.26-15.46,0,0,1,.09,1,.09h0Z"/>
      <path class="cls-7" d="M151.1,11.69c-9.81,3.79-20.77,7.29-30.83,10.38-6.87,1.52-33.77,6.96-35.61,13.53,0,0-.99-.11-.99-.11,1.35-7.8,29.14-13.53,36.13-15.12,6.92-2.06,16.36-4.98,23.25-7.16,2.58-.8,5.16-1.61,7.72-2.46,0,0,.34.94.34.94h0Z"/>
    </g>
  </g>
</svg>